<svg width="13" height="13" viewBox="0 0 13 13" fill="none" xmlns="http://www.w3.org/2000/svg">
<g opacity="0.7">
<path d="M6.5 0C2.90748 0 0 2.90723 0 6.5C0 10.0925 2.90723 13 6.5 13C10.0925 13 13 10.0928 13 6.5C13 2.90748 10.0928 0 6.5 0ZM4.95336 9.24193C4.95336 9.24193 2.70827 6.99593 2.54688 6.83485C2.18788 6.47585 2.18788 5.89167 2.54688 5.53297C2.90679 5.17306 3.48885 5.17306 3.84876 5.53297L5.30222 6.98643C5.48295 7.16716 5.77627 7.16592 5.95547 6.98428L9.14682 3.74692C9.50551 3.38302 10.0916 3.38056 10.4533 3.74232C10.8095 4.09855 10.8117 4.6803 10.4579 5.0393C6.99225 8.55555 6.3341 9.24163 6.3341 9.24163C5.95362 9.62208 5.33414 9.62241 4.95336 9.24193Z" fill="#335C3C"/>
</g>
</svg>
