<svg width="12" height="16" viewBox="0 0 12 16" fill="none" xmlns="http://www.w3.org/2000/svg">
<path d="M3.25005 3.125V0.193687C3.25005 0.0801562 3.13123 0.00121867 3.02933 0.0513437C2.98058 0.0753124 2.93561 0.107312 2.89648 0.146437L0.146483 2.89644C0.107327 2.93556 0.0753582 2.98053 0.0513894 3.02928C0.00126445 3.13116 0.080202 3.25 0.193733 3.25H3.12505C3.19408 3.25 3.25005 3.19403 3.25005 3.125Z" fill="white"/>
<path d="M10.875 0H4.40625C4.31997 0 4.25 0.0699688 4.25 0.15625V3.125C4.25 3.74631 3.74631 4.25 3.125 4.25H0.15625C0.0699688 4.25 0 4.31997 0 4.40625V14.875C0 15.4963 0.503688 16 1.125 16H10.875C11.4963 16 12 15.4963 12 14.875V1.125C12 0.503688 11.4963 0 10.875 0ZM6.5 11.9367V12.25C6.5 12.5261 6.27616 12.75 6 12.75C5.72384 12.75 5.5 12.5261 5.5 12.25V11.937C4.74831 11.745 4.16113 11.129 4.02781 10.3326C3.98222 10.0602 4.16606 9.80247 4.43841 9.75688C4.71072 9.71119 4.9685 9.89513 5.01409 10.1675C5.09481 10.6498 5.50947 11 6 11C6.55141 11 7 10.5514 7 10C7 9.44859 6.55141 9 6 9C4.89719 9 4 8.10281 4 7C4 6.06978 4.63834 5.28587 5.5 5.06328V4.75C5.5 4.47388 5.72384 4.25 6 4.25C6.27616 4.25 6.5 4.47388 6.5 4.75V5.06297C7.25169 5.25497 7.83887 5.87097 7.97219 6.66744C8.01778 6.93978 7.83394 7.19753 7.56159 7.24312C7.28938 7.28875 7.03153 7.10488 6.98591 6.83253C6.90519 6.35016 6.49053 6 6 6C5.44859 6 5 6.44859 5 7C5 7.55141 5.44859 8 6 8C7.10281 8 8 8.89719 8 10C8 10.9302 7.36166 11.7141 6.5 11.9367Z" fill="white"/>
</svg>
