<svg width="16" height="16" viewBox="0 0 16 16" fill="none" xmlns="http://www.w3.org/2000/svg">
<path d="M8 0C3.57849 0 0 3.57849 0 8C0 12.4215 3.57849 16 8 16C12.4215 16 16 12.4215 16 8C16 3.57849 12.4215 0 8 0ZM7.31183 2.61505C7.31183 2.23656 7.62151 1.92688 8 1.92688C8.3785 1.92688 8.68817 2.23656 8.68817 2.61505V3.42366C8.68817 3.80215 8.3785 4.11183 8 4.11183C7.62151 4.11183 7.31183 3.80215 7.31183 3.42366V2.61505ZM3.40645 8.68817H2.59785C2.21935 8.68817 1.90968 8.3785 1.90968 8C1.90968 7.62151 2.21935 7.31183 2.59785 7.31183H3.40645C3.78495 7.31183 4.09462 7.62151 4.09462 8C4.09462 8.3785 3.78495 8.68817 3.40645 8.68817ZM5.24731 5.23011C4.97204 5.50538 4.54194 5.50538 4.26667 5.24731L3.69893 4.66237C3.42366 4.3871 3.42366 3.95699 3.69893 3.68172C3.97419 3.40645 4.4043 3.40645 4.67957 3.68172L5.24731 4.24946C5.52258 4.52473 5.52258 4.95484 5.24731 5.23011ZM8.87742 9.82366C8.60215 9.96129 8.30968 10.0129 8 10.0129C6.7957 10.0129 5.84946 8.96344 6.0043 7.72473C6.09032 7.10538 6.45161 6.55484 7.00215 6.24516C7.6043 5.90108 8.29247 5.90108 8.86022 6.17634L11.3376 3.69893C11.6129 3.42366 12.043 3.42366 12.3183 3.69893C12.5935 3.97419 12.5935 4.4043 12.3183 4.67957L9.82366 7.13979C10.3054 8.13763 9.87527 9.34194 8.87742 9.82366ZM13.3849 8.68817H12.5763C12.1979 8.68817 11.8882 8.3785 11.8882 8C11.8882 7.62151 12.1979 7.31183 12.5763 7.31183H13.3849C13.7634 7.31183 14.0731 7.62151 14.0731 8C14.0731 8.3785 13.7634 8.68817 13.3849 8.68817Z" fill="white"/>
</svg>
