<svg width="12" height="12" viewBox="0 0 12 12" fill="none" xmlns="http://www.w3.org/2000/svg">
<g opacity="0.7">
<path d="M6.00098 0C2.69251 0 0.000976562 2.69157 0.000976562 6C0.000976562 9.30843 2.69248 12 6.00094 12C9.30938 12 12.0009 9.30843 12.0009 6C12.0009 2.69157 9.30938 0 6.00098 0ZM6.00098 2.02816C6.72878 2.02816 7.41136 2.22512 7.9986 2.56825L2.56923 7.99762C2.22606 7.41041 2.0291 6.7278 2.0291 6C2.0291 3.80991 3.81091 2.02816 6.00098 2.02816ZM6.00098 9.97184C5.27314 9.97184 4.5906 9.77488 4.00336 9.43175L9.43272 4.00238C9.77586 4.58962 9.97282 5.2722 9.97282 6C9.97282 8.19009 8.19101 9.97184 6.00098 9.97184Z" fill="#335C3C"/>
</g>
</svg>
