<svg width="16" height="16" viewBox="0 0 16 16" fill="none" xmlns="http://www.w3.org/2000/svg">
<path d="M8.00026 0C3.58345 0 0.000244141 3.57868 0.000244141 7.99579C0.000244141 12.4171 3.58345 16 8.00023 16C12.4194 16 15.9996 12.4171 15.9996 7.99579C15.9997 3.57868 12.4194 0 8.00026 0ZM8.57034 12.4472C8.38454 12.6126 8.16921 12.6957 7.92527 12.6957C7.67289 12.6957 7.45275 12.614 7.26483 12.4505C7.07662 12.2873 6.98233 12.0587 6.98233 11.7651C6.98233 11.5046 7.07358 11.2853 7.25549 11.1076C7.43741 10.9299 7.66056 10.8411 7.92527 10.8411C8.18577 10.8411 8.40503 10.9299 8.58301 11.1076C8.7607 11.2853 8.84984 11.5045 8.84984 11.7651C8.84951 12.0545 8.75644 12.2819 8.57034 12.4472ZM10.8872 6.70351C10.7444 6.96823 10.5749 7.19649 10.3782 7.38896C10.1821 7.5814 9.82951 7.90484 9.32052 8.35958C9.18018 8.48789 9.06725 8.60052 8.98263 8.69748C8.89801 8.79477 8.83476 8.88357 8.79349 8.9643C8.75192 9.045 8.72002 9.12573 8.69742 9.20642C8.67482 9.28682 8.64081 9.42868 8.59472 9.63134C8.51644 10.0614 8.27039 10.2764 7.85688 10.2764C7.64185 10.2764 7.46116 10.2062 7.31388 10.0656C7.16721 9.92496 7.09403 9.71626 7.09403 9.43921C7.09403 9.09198 7.14794 8.7911 7.25546 8.53664C7.36238 8.28215 7.50543 8.059 7.68312 7.86657C7.86111 7.67413 8.10081 7.44583 8.40288 7.18111C8.6676 6.94952 8.85885 6.77487 8.97659 6.65709C9.09463 6.53905 9.19374 6.40774 9.27413 6.26318C9.35516 6.11831 9.39492 5.96141 9.39492 5.79187C9.39492 5.46091 9.27236 5.18204 9.02601 4.95466C8.77997 4.72729 8.46253 4.61344 8.07373 4.61344C7.61869 4.61344 7.2838 4.72818 7.06877 4.95766C6.85373 5.18715 6.67215 5.52504 6.52306 5.97167C6.38213 6.43909 6.1153 6.67276 5.72287 6.67276C5.49127 6.67276 5.29584 6.59114 5.13652 6.4279C4.97751 6.26466 4.898 6.0879 4.898 5.89757C4.898 5.50485 5.02419 5.10671 5.27627 4.70347C5.52866 4.30022 5.89667 3.96622 6.38061 3.7018C6.86425 3.43708 7.42896 3.30455 8.07373 3.30455C8.67334 3.30455 9.20248 3.41537 9.66145 3.63674C10.1204 3.85778 10.4752 4.15866 10.7254 4.5393C10.9754 4.91965 11.1007 5.33316 11.1007 5.77979C11.1013 6.13069 11.0299 6.43879 10.8872 6.70351Z" fill="white"/>
</svg>
