<svg width="1445" height="820" viewBox="0 0 1445 820" fill="none" xmlns="http://www.w3.org/2000/svg">
<g opacity="0.08" clip-path="url(#clip0_1981:1746)">
<path d="M0 1190.66L375.011 1393.61L562.38 1495.33L609.218 1520.76C624.9 1528.89 641.317 1535.51 658.247 1540.55C675.176 1545.53 692.533 1548.91 710.092 1550.65C745.277 1554.31 780.838 1550.55 814.482 1539.62C822.875 1536.97 831.115 1533.85 839.164 1530.29C847.244 1526.77 855.036 1522.68 863.04 1518.69L958.421 1471.08L1149.21 1375.91L1530.77 1185.56L1912.57 995.661L2103.45 900.717L2198.91 853.244C2206.8 849.333 2214.78 845.193 2223.01 841.647C2231.22 838.035 2239.63 834.889 2248.19 832.225C2282.42 821.239 2318.58 817.552 2354.32 821.404C2363.22 822.347 2372.06 823.676 2380.84 825.391C2389.64 827.078 2398.34 829.238 2406.91 831.86C2424.04 837.016 2440.65 843.784 2456.5 852.072L2503.26 877.688L2690.27 980.106L3064 1185.44L2688.99 982.495L2501.62 880.778L2454.78 855.345C2423.37 839.028 2389.13 828.881 2353.91 825.452C2318.72 821.794 2283.16 825.554 2249.52 836.487C2241.13 839.14 2232.89 842.254 2224.84 845.817C2216.76 849.348 2208.96 853.427 2200.96 857.415L2105.58 905.009L1914.79 1000.2L1533.23 1190.54L1151.43 1380.43L960.551 1475.39L865.094 1522.85C857.181 1526.76 849.207 1530.9 840.99 1534.44C832.774 1538.04 824.366 1541.19 815.806 1543.87C781.576 1554.85 745.424 1558.54 709.681 1554.69C700.774 1553.74 691.933 1552.41 683.158 1550.7C674.359 1549.01 665.658 1546.85 657.091 1544.23C639.959 1539.07 623.354 1532.31 607.498 1524.02L560.736 1498.4L373.733 1395.99L0 1190.66Z" fill="#002D0A"/>
<path d="M0 1151.38L375.041 1354.27L562.41 1455.97L609.248 1481.39C640.649 1497.7 674.887 1507.85 710.108 1511.26C745.278 1514.94 780.828 1511.18 814.451 1500.23C822.842 1497.58 831.077 1494.47 839.118 1490.9C847.199 1487.38 854.99 1483.29 862.994 1479.3L958.314 1431.69L1149.09 1336.52L1530.72 1146.19L1912.5 956.286L2103.4 861.357L2198.86 813.885C2206.76 809.988 2214.73 805.833 2222.96 802.287C2231.19 798.688 2239.6 795.543 2248.16 792.866C2282.41 781.88 2318.58 778.194 2354.33 782.044C2363.23 782.988 2372.07 784.322 2380.86 786.047C2389.67 787.726 2398.4 789.87 2406.99 792.47C2424.12 797.639 2440.73 804.417 2456.59 812.713L2503.34 838.329L2690.3 940.716L3064 1146.19L2688.96 943.273L2501.59 841.57L2454.74 816.137C2423.34 799.831 2389.11 789.694 2353.89 786.275C2318.72 782.603 2283.18 786.357 2249.55 797.295C2241.16 799.946 2232.92 803.066 2224.88 806.64C2216.8 810.156 2209.03 814.25 2201.01 818.238L2105.69 865.832L1914.91 961.019L1533.28 1151.36L1151.57 1341.25L960.597 1436.2L865.14 1483.65C857.242 1487.57 849.253 1491.71 841.036 1495.25C832.819 1498.86 824.406 1502.01 815.836 1504.67C781.595 1515.68 745.423 1519.37 709.666 1515.49C700.759 1514.55 691.918 1513.22 683.143 1511.51C674.324 1509.82 665.602 1507.66 657.015 1505.04C639.879 1499.87 623.269 1493.1 607.407 1484.81L560.66 1459.2L373.657 1356.76L0 1151.38Z" fill="#002D0A"/>
<path d="M0 1112.1L375.072 1314.92L562.456 1416.61L609.294 1442.03C640.679 1458.34 674.902 1468.49 710.108 1471.9C745.268 1475.58 780.808 1471.82 814.421 1460.87C822.807 1458.23 831.037 1455.12 839.073 1451.55C847.153 1448.02 854.929 1443.94 862.948 1439.96L958.314 1392.3L1149.09 1297.13L1530.65 1106.75L1912.43 916.865L2103.34 821.997L2198.8 774.525C2206.7 770.629 2214.69 766.489 2222.92 762.927C2231.14 759.331 2239.55 756.186 2248.12 753.506C2265.21 748.05 2282.83 744.373 2300.68 742.532C2318.53 740.723 2336.51 740.779 2354.35 742.699C2363.25 743.643 2372.09 744.972 2380.89 746.687C2389.69 748.372 2398.4 750.51 2406.99 753.095C2424.12 758.251 2440.73 765.013 2456.59 773.292L2503.34 798.893L2690.33 901.356L3064 1106.83L2688.93 904.05L2501.54 802.363L2454.71 776.93C2423.31 760.64 2389.08 750.508 2353.88 747.083C2336.35 745.249 2318.68 745.249 2301.15 747.083C2283.63 748.967 2266.35 752.649 2249.58 758.072C2241.2 760.727 2232.97 763.842 2224.93 767.402C2216.85 770.918 2209.07 775.012 2201.07 779L2105.69 826.655L1914.89 921.842L1533.34 1112.2L1151.57 1302.08L960.642 1397.02L865.185 1444.51C857.288 1448.4 849.314 1452.56 841.081 1456.11C832.855 1459.7 824.437 1462.85 815.867 1465.53C781.605 1476.51 745.423 1480.2 709.651 1476.35C700.754 1475.4 691.913 1474.07 683.128 1472.35C674.313 1470.64 665.596 1468.46 657.015 1465.82C639.873 1460.65 623.258 1453.87 607.392 1445.57L560.645 1419.96L373.672 1317.54L0 1112.1Z" fill="#002D0A"/>
<path d="M0 1072.81L374.539 1276.61L561.71 1378.59L608.503 1404.1C640.057 1420.54 674.469 1430.79 709.879 1434.29C745.259 1438.04 781.03 1434.31 814.877 1423.35C823.373 1420.73 831.715 1417.63 839.864 1414.07C848.005 1410.54 855.857 1406.46 863.831 1402.47L959.242 1354.92L1150.05 1259.75L1531.67 1069.49L1913.4 879.484L2104.26 784.479L2199.7 736.977C2207.64 733.035 2215.54 728.91 2223.71 725.379C2231.87 721.791 2240.22 718.66 2248.73 716.003C2265.69 710.553 2283.17 706.87 2300.89 705.014C2318.6 703.16 2336.45 703.16 2354.15 705.014C2389.68 708.563 2424.21 718.897 2455.85 735.455L2502.64 760.979L2689.81 863.107L3064 1067.58L2689.45 863.777L2502.27 761.801L2455.48 736.292C2423.93 719.844 2389.52 709.594 2354.11 706.095C2336.46 704.245 2318.66 704.245 2301.01 706.095C2283.35 707.923 2265.93 711.569 2249.02 716.977C2240.55 719.636 2232.25 722.766 2224.14 726.353C2215.99 729.884 2208.14 733.963 2200.17 737.935L2104.77 785.468L1913.95 880.641L1532.33 1070.89L1150.6 1260.89L959.745 1355.89L864.303 1403.41C856.359 1407.35 848.462 1411.46 840.29 1415.01C832.132 1418.6 823.78 1421.73 815.273 1424.39C781.281 1435.38 745.362 1439.13 709.834 1435.38C674.304 1431.81 639.785 1421.47 608.138 1404.93L561.345 1379.39L374.174 1277.27L0 1072.81Z" fill="#002D0A"/>
<path d="M0 1033.56L374.57 1237.27L561.74 1339.24L608.548 1364.75C640.085 1381.2 674.484 1391.45 709.879 1394.93C727.529 1396.78 745.322 1396.78 762.972 1394.93C780.614 1393.07 798.017 1389.39 814.908 1383.96C823.364 1381.3 831.665 1378.17 839.773 1374.59C847.899 1371.05 855.766 1366.98 863.724 1363L959.136 1315.44L1150.05 1220.36L1531.67 1030.1L1913.34 840.109L2104.16 745.119L2199.61 697.617C2207.55 693.675 2215.45 689.565 2223.62 686.019C2231.81 682.426 2240.19 679.29 2248.73 676.628C2265.7 671.178 2283.18 667.496 2300.91 665.639C2318.61 663.812 2336.46 663.837 2354.17 665.715C2389.71 669.268 2424.24 679.602 2455.89 696.156L2502.69 721.695L2689.86 823.839L3064.02 1028.35L2689.42 824.539L2502.24 722.563L2455.44 697.069C2439.7 688.871 2423.21 682.19 2406.21 677.115C2389.2 672.078 2371.76 668.649 2354.11 666.872C2318.73 663.147 2282.96 666.875 2249.11 677.815C2240.65 680.471 2232.35 683.596 2224.24 687.176C2216.12 690.707 2208.25 694.786 2200.29 698.774L2104.88 746.337L1913.95 841.449L1532.33 1031.7L1150.66 1221.7L959.836 1316.66L864.409 1364.16C856.466 1368.1 848.553 1372.23 840.381 1375.76C832.194 1379.35 823.811 1382.49 815.273 1385.15C798.303 1390.6 780.818 1394.28 763.094 1396.15C745.385 1397.97 727.536 1397.94 709.834 1396.06C674.292 1392.51 639.76 1382.17 608.107 1365.62L561.314 1340.1L374.144 1237.95L0 1033.56Z" fill="#002D0A"/>
<path d="M0 994.23L374.6 1197.94L561.771 1299.91L608.579 1325.41C640.115 1341.84 674.507 1352.08 709.894 1355.58C727.534 1357.42 745.318 1357.42 762.957 1355.58C780.594 1353.71 797.992 1350.03 814.877 1344.6C823.327 1341.94 831.622 1338.82 839.727 1335.24C847.868 1331.71 855.72 1327.63 863.679 1323.64L959.09 1276.08L1149.88 1180.94L1531.48 990.684L1913.3 800.689L2104.16 705.745L2199.59 658.242C2207.53 654.315 2215.45 650.19 2223.62 646.644C2231.77 643.054 2240.12 639.919 2248.62 637.253C2265.6 631.803 2283.1 628.121 2300.83 626.264C2318.54 624.413 2336.39 624.413 2354.09 626.264C2389.64 629.827 2424.18 640.16 2455.85 656.705L2502.62 682.244L2689.8 784.403L3063.92 988.979L2689.38 785.316L2502.21 683.34L2455.41 657.846C2423.87 641.413 2389.48 631.173 2354.09 627.68C2318.71 623.929 2282.94 627.658 2249.09 638.623C2240.64 641.272 2232.34 644.397 2224.24 647.983C2216.12 651.499 2208.25 655.594 2200.29 659.566L2104.88 707.145L1914.06 802.211L1532.46 992.465L1150.7 1182.51L959.836 1277.5L864.409 1324.98C856.466 1328.92 848.553 1333.05 840.381 1336.6C832.223 1340.19 823.871 1343.32 815.364 1345.99C781.336 1356.96 745.386 1360.68 709.834 1356.9C674.284 1353.34 639.744 1343 608.077 1326.46L561.299 1300.92L374.128 1198.76L0 994.23Z" fill="#002D0A"/>
<path d="M0 954.946L374.631 1158.58L561.877 1260.55L608.685 1286.05C624.415 1294.24 640.888 1300.92 657.882 1306C674.881 1311.04 692.316 1314.46 709.955 1316.23C745.335 1319.97 781.104 1316.24 814.953 1305.29C823.402 1302.62 831.697 1299.5 839.803 1295.93C847.929 1292.4 855.781 1288.32 863.755 1284.33L959.151 1236.77L1149.9 1141.62L1531.48 951.37L1913.25 761.42L2104.16 666.37L2199.61 618.882C2207.53 614.94 2215.45 610.816 2223.63 607.269C2231.79 603.674 2240.14 600.539 2248.65 597.878C2282.69 586.903 2318.66 583.185 2354.23 586.965C2371.96 588.768 2389.49 592.228 2406.57 597.3C2423.65 602.417 2440.19 609.139 2456 617.375L2502.79 642.915L2689.96 745.089L3064.06 949.726L2689.35 746.094L2502.18 644.118L2455.38 618.624C2439.65 610.434 2423.17 603.758 2406.18 598.685C2389.17 593.65 2371.74 590.226 2354.09 588.457C2336.46 586.615 2318.68 586.615 2301.04 588.457C2283.42 590.319 2266.03 593.997 2249.15 599.431C2240.7 602.094 2232.41 605.218 2224.3 608.791C2216.18 612.322 2208.33 616.401 2200.35 620.389L2104.96 667.968L1914.1 763.079L1532.52 953.333L1150.75 1143.33L959.836 1238.3L864.394 1285.79C856.466 1289.73 848.553 1293.86 840.366 1297.39C832.208 1300.99 823.856 1304.13 815.349 1306.79C781.307 1317.77 745.34 1321.49 709.773 1317.69C674.213 1314.15 639.664 1303.82 608.001 1287.25L561.208 1261.71L374.037 1159.55L0 954.946Z" fill="#002D0A"/>
<path d="M0 915.663L374.676 1119.25L561.847 1221.23L608.716 1246.64C624.448 1254.83 640.921 1261.51 657.913 1266.58C674.909 1271.6 692.337 1275.02 709.971 1276.79C745.32 1280.53 781.059 1276.8 814.877 1265.85C823.324 1263.2 831.615 1260.07 839.712 1256.49C847.838 1252.96 855.69 1248.88 863.664 1244.91L959.06 1197.31L1149.85 1102.2L1531.42 911.949L1913.2 721.954L2104.16 626.995L2199.61 579.507C2207.53 575.565 2215.46 571.441 2223.63 567.909C2231.8 564.312 2240.15 561.172 2248.67 558.503C2265.66 553.052 2283.16 549.369 2300.91 547.514C2318.65 545.688 2336.54 545.718 2354.27 547.606C2389.85 551.151 2424.41 561.484 2456.09 578.046L2502.85 603.571L2690.02 705.745L3064.09 910.442L2689.32 706.856L2502.15 604.88L2455.35 579.386C2439.61 571.204 2423.14 564.533 2406.15 559.462C2389.15 554.433 2371.72 551.013 2354.09 549.249C2318.72 545.515 2282.96 549.248 2249.12 560.208C2240.68 562.861 2232.39 565.987 2224.29 569.568C2216.16 573.084 2208.31 577.179 2200.34 581.151L2104.94 628.699L1914.15 723.902L1532.58 914.156L1150.8 1104.14L959.912 1199.11L864.47 1246.64C856.542 1250.59 848.614 1254.71 840.442 1258.26C832.279 1261.85 823.922 1264.98 815.41 1267.65C781.36 1278.64 745.381 1282.36 709.803 1278.56C674.231 1275.02 639.668 1264.68 607.985 1248.12L561.147 1222.53L374.068 1120.32L0 915.663Z" fill="#002D0A"/>
<path d="M0 876.379L374.707 1079.91L561.984 1181.79L608.792 1207.25C624.517 1215.43 640.985 1222.09 657.974 1227.15C674.958 1232.17 692.377 1235.59 710.001 1237.34C745.317 1241.06 781.021 1237.32 814.801 1226.37C823.236 1223.71 831.516 1220.58 839.605 1217.01C847.731 1213.48 855.553 1209.4 863.542 1205.41L958.938 1157.85L1149.75 1062.72L1531.36 872.468L1913.1 682.473L2103.97 587.468L2199.41 539.965C2207.34 536.038 2215.26 531.914 2223.45 528.367C2231.62 524.775 2239.99 521.64 2248.51 518.976C2265.52 513.525 2283.04 509.842 2300.8 507.987C2318.56 506.173 2336.47 506.209 2354.23 508.094C2371.98 509.907 2389.53 513.377 2406.64 518.459C2423.72 523.595 2440.28 530.332 2456.09 538.58L2502.85 564.15L2690.02 666.4L3064.06 871.144L2689.29 667.633L2502.02 565.748L2455.21 540.269C2423.7 523.87 2389.35 513.661 2354 510.194C2336.39 508.353 2318.64 508.353 2301.03 510.194C2283.42 512.062 2266.05 515.744 2249.2 521.183C2240.76 523.834 2232.47 526.954 2224.38 530.528C2216.27 534.06 2208.43 538.139 2200.44 542.126L2105.05 589.69L1914.25 684.801L1532.64 875.055L1150.9 1065.05L960.034 1160.06L864.592 1207.56C856.664 1211.48 848.736 1215.61 840.549 1219.16C832.375 1222.75 824.008 1225.88 815.486 1228.55C781.398 1239.53 745.384 1243.24 709.773 1239.43C674.186 1235.89 639.607 1225.55 607.909 1208.99L561.147 1183.37L373.976 1081.12L0 876.379Z" fill="#002D0A"/>
<path d="M0 837.096L374.737 1040.56L562.014 1142.43L608.837 1167.89C640.334 1184.27 674.672 1194.47 710.001 1197.94C727.61 1199.78 745.363 1199.78 762.972 1197.94C780.549 1196.06 797.886 1192.38 814.71 1186.95C823.18 1184.3 831.496 1181.19 839.62 1177.62C847.731 1174.09 855.568 1170.01 863.557 1166.02L958.953 1118.46L1149.76 1023.33L1531.38 833.078L1913.05 643.067L2103.92 548.032L2199.35 500.529C2207.28 496.602 2215.22 492.478 2223.41 488.931C2231.58 485.336 2239.96 482.201 2248.48 479.54C2265.49 474.089 2283.02 470.407 2300.78 468.551C2318.55 466.735 2336.47 466.776 2354.23 468.673C2371.99 470.472 2389.55 473.942 2406.67 479.038C2423.75 484.175 2440.32 490.917 2456.14 499.175L2502.85 524.79L2690.02 627.056L3064.03 831.86L2689.26 628.41L2501.99 526.541L2455.16 501.062C2439.44 492.896 2422.98 486.24 2406 481.184C2389.02 476.165 2371.61 472.755 2354 471.002C2336.39 469.168 2318.64 469.168 2301.03 471.002C2283.45 472.875 2266.11 476.558 2249.29 481.991C2240.82 484.635 2232.5 487.755 2224.38 491.336C2216.27 494.867 2208.43 498.946 2200.46 502.934L2105.05 550.513L1914.3 645.64L1532.68 835.893L1150.95 1025.95L960.079 1120.88L864.653 1168.37C856.725 1172.29 848.781 1176.42 840.594 1179.96C832.416 1183.56 824.043 1186.7 815.516 1189.37C781.414 1200.34 745.393 1204.04 709.773 1200.24C674.157 1196.69 639.549 1186.36 607.818 1169.8L561.147 1144.17L373.976 1041.9L0 837.096Z" fill="#002D0A"/>
<path d="M0 797.812L374.768 1001.22L562.06 1103.07L608.883 1128.53C640.37 1144.91 674.698 1155.11 710.016 1158.58C745.308 1162.28 780.985 1158.54 814.741 1147.59C823.167 1144.94 831.438 1141.81 839.514 1138.23C847.625 1134.71 855.462 1130.62 863.435 1126.63L958.832 1079.07L1149.64 983.926L1531.25 793.672L1912.99 603.677L2103.86 508.687L2199.3 461.2C2207.23 457.273 2215.16 453.148 2223.36 449.602C2231.54 446.002 2239.92 442.862 2248.45 440.196C2265.47 434.743 2283.01 431.06 2300.78 429.207C2318.56 427.398 2336.48 427.439 2354.24 429.329C2372.01 431.138 2389.57 434.614 2406.68 439.709C2423.78 444.848 2440.35 451.596 2456.18 459.861L2502.94 485.431L2690.02 587.711L3064 792.576L2689.23 589.127L2501.94 487.318L2455.12 461.854C2439.4 453.728 2422.95 447.104 2405.98 442.068C2389.01 437.055 2371.6 433.651 2353.98 431.901C2336.39 430.059 2318.64 430.059 2301.04 431.901C2283.47 433.781 2266.13 437.463 2249.31 442.89C2240.88 445.553 2232.61 448.678 2224.53 452.25C2216.42 455.766 2208.6 459.861 2200.61 463.848L2105.21 511.412L1914.36 606.462L1532.75 796.716L1151.01 986.696L960.14 1081.7L864.698 1129.19C856.77 1133.12 848.827 1137.24 840.64 1140.79C832.457 1144.38 824.08 1147.52 815.547 1150.18C781.433 1161.17 745.392 1164.87 709.758 1161.04C674.136 1157.48 639.527 1147.12 607.803 1130.53L561.025 1104.96L373.976 1002.68L0 797.812Z" fill="#002D0A"/>
<path d="M0 758.513L374.798 961.872L562.09 1063.71L608.929 1089.16C624.636 1097.32 641.083 1103.97 658.05 1109.02C675.019 1114.04 692.423 1117.44 710.031 1119.19C745.313 1122.87 780.974 1119.11 814.71 1108.14C823.131 1105.49 831.397 1102.37 839.468 1098.79C847.579 1095.26 855.401 1091.18 863.39 1087.2L958.786 1039.65L1149.59 944.536L1531.19 754.282L1912.93 564.287L2103.81 469.297L2199.26 421.81C2207.17 417.883 2215.11 413.758 2223.31 410.212C2231.5 406.617 2239.88 403.477 2248.41 400.806C2265.44 395.354 2282.98 391.672 2300.77 389.817C2318.56 388.006 2336.48 388.051 2354.26 389.954C2372.03 391.758 2389.59 395.233 2406.71 400.334C2423.81 405.48 2440.38 412.227 2456.21 420.486L2502.99 446.056L2690.02 548.367L3064 753.293L2689.2 549.95L2501.89 448.111L2455.07 422.647C2439.36 414.499 2422.91 407.848 2405.95 402.784C2388.98 397.782 2371.58 394.383 2353.97 392.633C2336.38 390.799 2318.65 390.799 2301.06 392.633C2283.48 394.502 2266.14 398.185 2249.32 403.622C2240.9 406.273 2232.63 409.393 2224.56 412.967C2216.45 416.498 2208.63 420.577 2200.64 424.565L2105.24 472.143L1914.41 567.285L1532.81 757.539L1151.05 947.534L960.186 1042.51L864.744 1090C856.831 1093.92 848.873 1098.05 840.686 1101.59C832.497 1105.19 824.114 1108.33 815.577 1111C781.446 1121.98 745.39 1125.67 709.742 1121.84C691.971 1120.02 674.41 1116.54 657.289 1111.44C640.193 1106.34 623.619 1099.62 607.787 1091.4L561.01 1065.83L373.976 963.439L0 758.513Z" fill="#002D0A"/>
<path d="M0 679.946L374.859 883.183L562.182 984.976L609.005 1010.44C640.465 1026.79 674.762 1036.97 710.047 1040.42C745.3 1044.11 780.935 1040.36 814.649 1029.42C823.064 1026.77 831.324 1023.65 839.392 1020.07C847.488 1016.56 855.294 1012.46 863.298 1008.48L958.679 960.898L1149.49 865.74L1531.07 675.487L1912.82 485.522L2103.71 390.547L2199.15 343.06C2207.06 339.148 2215.02 335.008 2223.22 331.462C2231.42 327.864 2239.8 324.724 2248.35 322.056C2265.39 316.604 2282.94 312.926 2300.74 311.082C2318.54 309.266 2336.48 309.307 2354.27 311.204C2372.06 313.019 2389.64 316.505 2406.77 321.615C2423.88 326.767 2440.47 333.524 2456.3 341.797L2503.07 367.367L2690.12 469.708L3064 674.756L2689.14 471.489L2501.82 369.696L2455 344.247C2439.29 336.118 2422.85 329.493 2405.89 324.461C2388.93 319.464 2371.54 316.066 2353.95 314.309C2336.37 312.482 2318.65 312.482 2301.07 314.309C2283.5 316.185 2266.16 319.867 2249.34 325.298C2240.93 327.949 2232.67 331.069 2224.61 334.643C2216.5 338.174 2208.69 342.253 2200.7 346.241L2105.31 393.82L1914.53 488.931L1532.93 679.185L1151.18 869.18L960.292 964.155L864.851 1011.63C856.922 1015.55 848.979 1019.68 840.762 1023.22C832.574 1026.82 824.191 1029.97 815.654 1032.63C798.612 1038.08 781.056 1041.76 763.261 1043.62C745.46 1045.43 727.519 1045.39 709.727 1043.48C691.94 1041.67 674.362 1038.18 657.228 1033.07C640.117 1027.93 623.532 1021.18 607.696 1012.91L560.934 987.32L373.885 884.994L0 679.946Z" fill="#002D0A"/>
<path d="M0 601.379L374.92 804.494L562.258 906.257L609.081 931.705C624.781 939.84 641.219 946.465 658.171 951.491C675.112 956.49 692.486 959.884 710.062 961.628C727.63 963.462 745.342 963.462 762.911 961.628C780.489 959.749 797.827 956.061 814.649 950.624C823.052 947.971 831.302 944.856 839.362 941.294C847.457 937.763 855.249 933.684 863.253 929.696L958.649 882.102L1149.37 786.99L1530.95 596.737L1912.72 406.787L2103.6 311.828L2199.06 264.356C2206.96 260.444 2214.93 256.304 2223.15 252.758C2231.34 249.153 2239.74 246.008 2248.29 243.337C2265.34 237.89 2282.91 234.213 2300.72 232.363C2318.54 230.551 2336.49 230.597 2354.29 232.5C2363.18 233.443 2372.01 234.773 2380.8 236.487C2389.58 238.175 2398.27 240.324 2406.83 242.926C2423.95 248.077 2440.54 254.839 2456.38 263.123L2503.14 288.708L2690.18 391.08L3064 596.25L2689.08 393.043L2501.74 291.265L2454.9 265.832C2439.21 257.694 2422.78 251.068 2405.83 246.046C2388.89 241.047 2371.51 237.653 2353.94 235.909C2336.37 234.075 2318.67 234.075 2301.1 235.909C2283.53 237.787 2266.19 241.475 2249.37 246.913C2240.96 249.566 2232.7 252.681 2224.64 256.243C2216.56 259.775 2208.75 263.854 2200.75 267.841L2105.37 315.435L1914.57 410.592L1532.99 600.846L1151.28 790.826L960.399 885.785L864.942 933.258C857.029 937.169 849.07 941.309 840.853 944.855C832.652 948.454 824.26 951.599 815.714 954.277C798.657 959.724 781.086 963.401 763.276 965.251C745.465 967.062 727.514 967.016 709.712 965.114C700.825 964.17 691.994 962.841 683.219 961.126C674.428 959.44 665.732 957.291 657.167 954.688C640.05 949.537 623.46 942.774 607.62 934.49L560.858 908.905L373.824 806.533L0 601.379Z" fill="#002D0A"/>
<path d="M0 522.812L374.981 725.805L562.334 827.537L609.172 852.986C624.86 861.114 641.281 867.739 658.217 872.772C675.149 877.759 692.512 881.143 710.077 882.878C727.631 884.705 745.327 884.705 762.881 882.878C780.422 880.994 797.724 877.312 814.512 871.889C822.914 869.241 831.159 866.121 839.21 862.544C847.29 859.028 855.096 854.934 863.101 850.946L958.482 803.352L1149.26 708.164L1530.83 517.819L1912.61 327.916L2103.51 232.972L2198.95 185.499C2206.86 181.588 2214.84 177.448 2223.06 173.902C2231.26 170.301 2239.67 167.161 2248.22 164.495C2265.29 159.033 2282.88 155.351 2300.71 153.506C2318.54 151.7 2336.5 151.751 2354.32 153.659C2363.21 154.602 2372.06 155.926 2380.83 157.646C2389.62 159.337 2398.31 161.491 2406.88 164.1C2424.01 169.241 2440.61 175.993 2456.47 184.267L2503.22 209.867L2690.24 312.269L3064 517.591L2689.02 314.583L2501.67 212.85L2454.83 187.417C2439.14 179.285 2422.72 172.66 2405.78 167.631C2388.85 162.644 2371.48 159.26 2353.91 157.525C2336.36 155.683 2318.67 155.683 2301.12 157.525C2283.58 159.394 2266.27 163.077 2249.49 168.514C2241.09 171.166 2232.84 174.281 2224.79 177.844C2216.71 181.375 2208.92 185.454 2200.91 189.442L2105.52 237.035L1914.74 332.208L1533.17 522.553L1151.39 712.411L960.49 807.431L865.048 854.888C857.135 858.8 849.162 862.94 840.944 866.486C832.732 870.082 824.33 873.227 815.775 875.907C798.705 881.363 781.117 885.041 763.291 886.881C745.465 888.695 727.497 888.644 709.681 886.729C700.795 885.795 691.959 884.466 683.173 882.741C674.38 881.058 665.684 878.903 657.121 876.288C639.994 871.132 623.394 864.364 607.544 856.075L560.782 830.475L373.763 728.073L0 522.812Z" fill="#002D0A"/>
<path d="M0 444.229L375.041 647.116L562.41 748.818L609.248 774.251C624.93 782.38 641.347 789.005 658.278 794.037C675.201 799.019 692.553 802.402 710.107 804.144C727.646 805.978 745.327 805.978 762.865 804.144C780.394 802.274 797.682 798.591 814.451 793.155C822.839 790.502 831.074 787.387 839.118 783.825C847.199 780.294 854.99 776.215 862.994 772.227L958.314 724.587L1149.15 629.369L1530.72 439.009L1912.5 249.12L2103.4 154.176L2198.86 106.719C2206.76 102.808 2214.73 98.6677 2222.96 95.1213C2231.18 91.507 2239.59 88.3615 2248.16 85.7C2265.24 80.2394 2282.84 76.5568 2300.68 74.7109C2318.52 72.9097 2336.5 72.9658 2354.33 74.8784C2363.23 75.822 2372.07 77.1513 2380.86 78.8661C2389.67 80.5606 2398.4 82.7198 2406.99 85.3347C2424.12 90.5039 2440.73 97.2817 2456.59 105.578L2503.34 131.178L2690.34 233.611L3064.05 439.085L2688.96 236.137L2501.59 134.435L2454.74 109.002C2439.06 100.873 2422.65 94.2484 2405.72 89.2159C2388.8 84.2345 2371.45 80.851 2353.89 79.1096C2336.35 77.2756 2318.67 77.2756 2301.13 79.1096C2283.61 80.988 2266.32 84.6705 2249.55 90.0987C2241.16 92.7514 2232.93 95.8662 2224.88 99.4287C2216.8 102.96 2209.03 107.039 2201.01 111.027L2105.69 158.697L1914.91 253.869L1533.28 444.229L1151.57 634.118L960.597 729.062L865.14 776.519C857.242 780.431 849.253 784.57 841.036 788.117C832.819 791.726 824.405 794.872 815.836 797.538C798.755 802.994 781.157 806.671 763.322 808.512C745.48 810.326 727.497 810.275 709.666 808.36C700.759 807.416 691.918 806.082 683.143 804.357C674.326 802.667 665.604 800.513 657.015 797.903C639.878 792.734 623.268 785.956 607.407 777.66L560.706 752.06L373.702 649.627L0 444.229Z" fill="#002D0A"/>
<path d="M0 365.388L375.072 568.199L562.456 669.886L609.294 695.319C624.972 703.444 641.383 710.069 658.308 715.105C675.2 720.085 692.522 723.463 710.047 725.196C727.58 727.03 745.256 727.03 762.789 725.196C780.313 723.327 797.596 719.644 814.36 714.207C822.769 711.541 831.019 708.4 839.073 704.801C847.153 701.285 854.929 697.191 862.948 693.203L958.314 645.594L1149.11 550.406L1530.66 360.031L1912.43 170.157L2103.33 75.2132L2198.78 27.7563C2206.68 23.8599 2214.67 19.7047 2222.9 16.1584C2231.12 12.549 2239.53 9.40359 2248.1 6.73701C2265.2 1.27638 2282.81 -2.40608 2300.66 -4.25201C2318.51 -6.05323 2336.5 -5.99714 2354.33 -4.08461C2363.23 -3.14095 2372.08 -1.80663 2380.87 -0.0816603C2389.68 1.60895 2398.38 3.76823 2406.95 6.38697C2424.1 11.5561 2440.71 18.3339 2456.58 26.6299L2503.32 52.2457L2690.31 154.694L3063.98 360.168L2688.93 157.327L2501.54 55.6398L2454.71 30.222C2439.03 22.0931 2422.62 15.4681 2405.69 10.4356C2388.77 5.46274 2371.43 2.08934 2353.88 0.359741C2336.35 -1.47434 2318.68 -1.47434 2301.15 0.359741C2283.63 2.22926 2266.34 5.91199 2249.58 11.3488C2241.19 13.9974 2232.96 17.1123 2224.93 20.6788C2216.85 24.1947 2209.07 28.289 2201.07 32.2767L2105.69 79.9315L1914.89 175.134L1533.34 365.495L1151.57 555.368L960.642 650.312L865.185 697.754C857.288 701.665 849.314 705.805 841.142 709.367C832.919 712.977 824.501 716.128 815.927 718.803C798.835 724.253 781.227 727.93 763.383 729.777C745.535 731.586 727.548 731.53 709.712 729.61C700.815 728.666 691.974 727.332 683.188 725.607C674.354 723.916 665.617 721.751 657.015 719.123C639.871 713.961 623.256 707.182 607.392 698.88L560.66 673.28L373.672 570.862L0 365.388Z" fill="#002D0A"/>
<path d="M0 286.243L375.072 489.053L562.456 590.74L609.294 616.173C624.972 624.298 641.383 630.923 658.308 635.959C675.2 640.939 692.522 644.318 710.047 646.05C727.58 647.885 745.256 647.885 762.789 646.05C780.313 644.181 797.596 640.498 814.36 635.061C822.769 632.395 831.019 629.255 839.073 625.655C847.153 622.139 854.929 618.045 862.948 614.057L958.314 566.448L1149.09 471.261L1530.65 280.885L1912.43 91.0118L2103.33 -3.93238L2198.78 -51.3893C2206.68 -55.2857 2214.67 -59.4408 2222.9 -62.9872C2231.12 -66.5965 2239.53 -69.7419 2248.1 -72.4085C2265.2 -77.8692 2282.81 -81.5516 2300.66 -83.3975C2318.51 -85.1988 2336.5 -85.1427 2354.33 -83.2301C2363.23 -82.2865 2372.08 -80.9522 2380.87 -79.2272C2389.68 -77.5366 2398.38 -75.3773 2406.95 -72.7586C2424.1 -67.5895 2440.71 -60.8117 2456.58 -52.5156L2503.32 -26.8998L2690.31 75.548L3063.98 281.022L2688.93 78.1811L2501.54 -23.5057L2454.71 -48.9236C2439.03 -57.0524 2422.62 -63.6775 2405.69 -68.71C2388.77 -73.6828 2371.43 -77.0562 2353.88 -78.7858C2336.35 -80.6199 2318.68 -80.6199 2301.15 -78.7858C2283.63 -76.9163 2266.34 -73.2336 2249.58 -67.7967C2241.19 -65.1481 2232.96 -62.0333 2224.93 -58.4667C2216.85 -54.9508 2209.07 -50.8565 2201.07 -46.8688L2105.69 0.785927L1914.89 95.9889L1533.34 286.349L1151.57 476.222L960.642 571.167L865.185 618.608C857.288 622.52 849.314 626.66 841.142 630.221C832.898 633.829 824.46 636.974 815.867 639.643C798.774 645.092 781.166 648.769 763.322 650.617C745.474 652.425 727.487 652.369 709.651 650.449C700.754 649.505 691.913 648.176 683.128 646.461C674.315 644.761 665.599 642.596 657.015 639.978C639.871 634.815 623.256 628.037 607.392 619.735L560.66 594.134L373.672 491.717L0 286.243Z" fill="#002D0A"/>
<path d="M0 193.201L374.174 -11.3143L561.345 -113.458L608.138 -138.997C623.932 -147.229 640.471 -153.945 657.532 -159.058C674.614 -164.133 692.135 -167.588 709.864 -169.377C727.569 -171.222 745.419 -171.222 763.124 -169.377C780.836 -167.543 798.312 -163.886 815.273 -158.464C823.791 -155.798 832.153 -152.658 840.321 -149.058C848.507 -145.512 856.405 -141.448 864.348 -137.46L959.836 -89.9728L1150.66 5.01712L1532.4 195.012L1914.01 385.266L2104.8 480.393L2200.21 527.971C2208.19 531.929 2216.04 536.023 2224.17 539.554C2232.27 543.14 2240.57 546.265 2249.03 548.914C2265.92 554.354 2283.32 558.036 2300.97 559.904C2318.62 561.745 2336.41 561.745 2354.06 559.904C2371.71 558.132 2389.15 554.707 2406.16 549.676C2423.17 544.594 2439.65 537.913 2455.39 529.722L2502.2 504.212L2689.37 402.237L3064 198.421L2689.84 402.952L2502.67 505.095L2455.88 530.62C2440.08 538.858 2423.55 545.58 2406.48 550.695C2389.4 555.765 2371.88 559.215 2354.15 560.999C2336.45 562.875 2318.6 562.905 2300.89 561.091C2283.17 559.226 2265.69 555.543 2248.73 550.102C2240.23 547.431 2231.88 544.29 2223.73 540.695C2215.55 537.164 2207.66 533.085 2199.71 529.098L2104.16 481.61L1913.34 386.605L1531.6 196.61L1150.05 6.35648L959.258 -88.7704L863.846 -136.334C855.888 -140.306 848.02 -144.401 839.894 -147.932C831.786 -151.511 823.485 -154.636 815.03 -157.292C798.141 -162.731 780.737 -166.414 763.094 -168.281C745.444 -170.115 727.651 -170.115 710.001 -168.281C692.35 -166.512 674.905 -163.082 657.898 -158.038C640.893 -152.963 624.41 -146.282 608.67 -138.084L561.801 -112.529L374.631 -10.5533L0 193.201Z" fill="#002D0A"/>
<path d="M0 271.768L374.098 67.0704L561.269 -35.0883L608.061 -60.6279C623.862 -68.8155 640.4 -75.4914 657.456 -80.5665C674.543 -85.6452 692.069 -89.1053 709.803 -90.9011C727.541 -92.7807 745.426 -92.8113 763.17 -90.9925C780.904 -89.1247 798.4 -85.4372 815.38 -79.9882C823.887 -77.3273 832.239 -74.1921 840.397 -70.5973C848.583 -67.0509 856.496 -62.9871 864.424 -58.9994L959.836 -11.5881L1150.72 83.3865L1532.49 273.351L1914.07 463.605L2104.86 558.762L2200.26 606.341C2208.23 610.298 2216.09 614.408 2224.21 617.923C2232.32 621.503 2240.61 624.628 2249.06 627.284C2265.95 632.739 2283.35 636.427 2301 638.288C2318.63 640.13 2336.4 640.13 2354.03 638.288C2371.67 636.519 2389.11 633.095 2406.12 628.06C2423.11 622.986 2439.58 616.315 2455.31 608.137L2502.12 582.643L2689.29 480.667L3063.94 277.034L2689.9 481.641L2502.73 583.799L2455.94 609.339C2440.14 617.582 2423.59 624.304 2406.51 629.415C2389.43 634.493 2371.9 637.954 2354.17 639.749C2336.43 641.629 2318.54 641.66 2300.8 639.841C2283.06 637.98 2265.57 634.293 2248.59 628.836C2240.08 626.176 2231.73 623.04 2223.57 619.445C2215.39 615.899 2207.47 611.835 2199.55 607.848L2104.16 560.36L1913.28 465.386L1531.48 275.421L1149.9 85.1673L959.105 -10.0204L863.709 -57.5991C855.735 -61.5564 847.883 -65.6659 839.758 -69.197C831.654 -72.7715 823.358 -75.8915 814.908 -78.5423C798.035 -83.9812 780.646 -87.6637 763.017 -89.5313C745.383 -91.373 727.605 -91.373 709.971 -89.5313C692.326 -87.7675 674.887 -84.3482 657.882 -79.3185C640.889 -74.1935 624.417 -67.477 608.685 -59.2581L561.877 -33.8402L374.707 68.1358L0 271.768Z" fill="#002D0A"/>
<path d="M0 350.351L373.976 145.592L561.147 43.3419L607.924 17.787C623.737 9.53205 640.296 2.79484 657.38 -2.33424C674.485 -7.43021 692.032 -10.9006 709.788 -12.6993C727.545 -14.589 745.45 -14.6298 763.215 -12.821C780.975 -10.9659 798.497 -7.2834 815.501 -1.83194C824.023 0.836525 832.391 3.97674 840.564 7.57419C848.751 11.1053 856.679 15.1843 864.607 19.1721L960.049 66.6594L1150.92 161.664L1532.64 351.69L1914.25 541.944L2105.06 637.07L2200.46 684.634C2208.45 688.606 2216.28 692.701 2224.39 696.232C2232.48 699.806 2240.76 702.926 2249.2 705.577C2266.05 711.016 2283.42 714.698 2301.03 716.566C2318.64 718.4 2336.39 718.4 2354 716.566C2371.62 714.807 2389.04 711.393 2406.03 706.369C2423.01 701.314 2439.48 694.653 2455.21 686.476L2502.02 661.012L2689.29 559.112L3064 355.602L2690.02 560.33L2502.85 662.58L2456.08 688.135C2440.26 696.39 2423.7 703.127 2406.62 708.256C2389.52 713.352 2371.97 716.822 2354.21 718.621C2336.46 720.513 2318.55 720.549 2300.78 718.727C2283.02 716.885 2265.5 713.207 2248.5 707.754C2239.98 705.085 2231.61 701.945 2223.44 698.347C2215.25 694.801 2207.32 690.737 2199.39 686.75L2103.97 639.262L1913.1 544.257L1531.36 354.247L1149.75 163.993L958.938 68.8816L863.542 21.3029C855.553 17.3304 847.731 13.2361 839.605 9.70503C831.519 6.12812 823.238 3.00815 814.801 0.359787C797.947 -5.05469 780.578 -8.71181 762.972 -10.5532C745.363 -12.3948 727.61 -12.3948 710.001 -10.5532C692.378 -8.79967 674.958 -5.3905 657.974 -0.370805C640.99 4.69693 624.523 11.3575 608.792 19.5221L561.984 45.0009L374.707 146.825L0 350.351Z" fill="#002D0A"/>
<path d="M0 428.918L373.976 224.053L561.056 121.772L607.833 96.202C623.652 87.9307 640.222 81.1831 657.319 76.0503C674.435 70.9566 691.992 67.4812 709.758 65.67C727.525 63.7802 745.44 63.7394 763.215 65.5483C780.991 67.4018 798.527 71.0843 815.547 76.5373C824.08 79.2032 832.457 82.3435 840.64 85.9435C848.827 89.4898 856.77 93.5536 864.698 97.5413L960.14 145.029L1151.01 240.019L1532.75 429.998L1914.36 620.252L2105.17 715.455L2200.56 763.034C2208.55 767.006 2216.38 771.1 2224.49 774.632C2232.56 778.196 2240.83 781.305 2249.26 783.946C2266.08 789.381 2283.42 793.063 2301 794.936C2318.6 796.77 2336.34 796.77 2353.94 794.936C2371.55 793.178 2388.96 789.774 2405.94 784.768C2422.9 779.703 2439.35 773.047 2455.07 764.891L2501.89 739.427L2689.23 637.542L3064 434.138L2690.02 639.019L2502.94 741.33L2456.18 766.9C2440.35 775.144 2423.78 781.871 2406.68 786.991C2389.57 792.093 2372.01 795.568 2354.24 797.371C2336.48 799.268 2318.56 799.309 2300.78 797.492C2283.01 795.644 2265.47 791.967 2248.45 786.519C2239.92 783.846 2231.55 780.706 2223.36 777.112C2215.16 773.566 2207.23 769.502 2199.3 765.515L2103.86 718.027L1912.99 623.037L1531.25 433.058L1149.64 242.804L958.832 147.738L863.435 100.159C855.462 96.1715 847.625 92.0925 839.514 88.5614C831.438 84.9846 823.167 81.8646 814.741 79.2161C797.919 73.782 780.581 70.0994 763.002 68.2271C745.404 66.3854 727.661 66.3854 710.062 68.2271C692.449 69.977 675.04 73.381 658.065 78.3942C641.093 83.4474 624.641 90.1032 608.929 98.2719L562.06 123.659L374.768 225.514L0 428.918Z" fill="#002D0A"/>
<path d="M0 507.485L373.976 302.498L561.04 200.187L607.803 174.617C623.633 166.343 640.213 159.591 657.319 154.45C674.447 149.337 692.02 145.856 709.803 144.055C727.584 142.144 745.516 142.099 763.307 143.918C781.097 145.773 798.648 149.455 815.684 154.907C824.223 157.568 832.606 160.709 840.792 164.313C848.994 167.859 856.938 171.923 864.851 175.911L960.292 223.383L1151.12 318.373L1532.87 508.337L1914.47 698.591L2105.26 793.733L2200.66 841.312C2208.66 845.284 2216.47 849.378 2224.58 852.909C2232.65 856.48 2240.91 859.6 2249.32 862.255C2266.14 867.685 2283.48 871.367 2301.06 873.244C2318.65 875.078 2336.38 875.078 2353.97 873.244C2371.57 871.501 2388.96 868.102 2405.92 863.092C2422.88 858.062 2439.33 851.437 2455.04 843.305L2501.86 817.842L2689.17 716.033L3064 512.721L2690.02 717.692L2503.02 820.018L2456.26 845.589C2440.43 853.862 2423.85 860.615 2406.74 865.755C2389.61 870.869 2372.04 874.349 2354.26 876.151C2336.48 878.061 2318.54 878.107 2300.75 876.288C2282.96 874.433 2265.41 870.75 2248.38 865.299C2239.84 862.637 2231.46 859.497 2223.27 855.893C2215.07 852.346 2207.12 848.283 2199.2 844.295L2103.75 796.807L1912.89 701.833L1531.13 511.868L1149.53 321.615L958.74 226.442L863.344 178.848C855.355 174.876 847.533 170.781 839.438 167.25C831.36 163.689 823.095 160.569 814.68 157.905C797.856 152.475 780.519 148.793 762.941 146.916C745.352 145.082 727.62 145.082 710.031 146.916C692.434 148.659 675.04 152.058 658.08 157.068C641.119 162.098 624.672 168.723 608.959 176.854L562.136 202.379L374.828 304.187L0 507.485Z" fill="#002D0A"/>
<path d="M0 586.083L373.854 380.959L560.904 278.633L607.666 253.047C623.504 244.775 640.088 238.018 657.198 232.865C674.337 227.756 691.919 224.27 709.712 222.454C727.508 220.544 745.455 220.498 763.261 222.317C781.065 224.167 798.632 227.845 815.684 233.291C824.226 235.965 832.614 239.11 840.807 242.713C849.025 246.259 856.983 250.323 864.896 254.311L960.338 301.783L1151.22 396.757L1532.99 586.661L1914.57 776.915L2105.37 872.057L2200.76 919.651C2208.75 923.638 2216.56 927.717 2224.65 931.249C2232.72 934.811 2240.98 937.926 2249.4 940.579C2266.22 946.018 2283.56 949.706 2301.13 951.583C2318.7 953.409 2336.41 953.409 2353.98 951.583C2371.57 949.839 2388.95 946.445 2405.9 941.446C2422.85 936.41 2439.29 929.785 2455 921.66L2501.83 896.211L2689.16 794.418L3064 591.288L2690.15 796.382L2503.1 898.738L2456.33 924.323C2440.5 932.596 2423.91 939.353 2406.8 944.505C2389.66 949.62 2372.08 953.111 2354.29 954.931C2336.49 956.826 2318.55 956.872 2300.74 955.068C2282.93 953.213 2265.37 949.531 2248.32 944.079C2239.77 941.411 2231.38 938.271 2223.18 934.673C2214.98 931.127 2207.02 926.987 2199.1 923.075L2103.66 875.588L1912.78 780.628L1531.01 590.649L1149.43 400.395L958.634 305.222L863.238 257.629C855.249 253.641 847.442 249.547 839.347 246.031C831.285 242.456 823.029 239.336 814.619 236.685C797.798 231.246 780.46 227.564 762.881 225.696C745.312 223.862 727.6 223.862 710.031 225.696C692.445 227.44 675.062 230.834 658.111 235.833C641.158 240.86 624.721 247.485 609.02 255.619L562.212 281.098L374.889 382.876L0 586.083Z" fill="#002D0A"/>
<path d="M0 664.634L373.794 459.419L560.827 357.032L607.574 331.432C623.425 323.148 640.025 316.385 657.152 311.234C665.711 308.626 674.402 306.472 683.188 304.781C691.974 303.066 700.81 301.737 709.697 300.793C727.509 298.891 745.47 298.845 763.291 300.656C781.107 302.497 798.685 306.175 815.745 311.63C824.298 314.301 832.696 317.446 840.899 321.051C849.116 324.598 857.09 328.662 864.987 332.649L960.445 380.106L1151.33 475.081L1533.11 665L1914.68 855.253L2105.47 950.426L2200.85 998.02C2208.86 1002.01 2216.66 1006.09 2224.74 1009.62C2232.8 1013.18 2241.05 1016.3 2249.46 1018.95C2283.13 1029.89 2318.71 1033.64 2353.92 1029.97C2371.49 1028.23 2388.86 1024.84 2405.8 1019.85C2422.75 1014.82 2439.18 1008.19 2454.87 1000.06L2501.7 974.611L2689.05 872.863L3064 669.794L2690.21 875.07L2503.19 977.457L2456.43 1003.12C2440.58 1011.4 2423.98 1018.16 2406.86 1023.32C2398.3 1025.92 2389.6 1028.08 2380.81 1029.77C2372.04 1031.48 2363.2 1032.81 2354.3 1033.76C2336.49 1035.67 2318.53 1035.71 2300.71 1033.89C2282.89 1032.05 2265.31 1028.38 2248.26 1022.92C2239.7 1020.26 2231.3 1017.11 2223.1 1013.5C2214.88 1009.95 2206.91 1005.81 2199 1001.9L2103.56 954.414L1912.67 859.454L1530.89 669.49L1149.32 479.236L958.527 384.003L863.146 336.47C855.142 332.482 847.351 328.403 839.255 324.872C831.196 321.309 822.946 318.194 814.543 315.542C797.754 310.089 780.446 306.391 762.896 304.507C745.337 302.673 727.636 302.673 710.077 304.507C692.501 306.248 675.128 309.636 658.187 314.629C641.242 319.651 624.815 326.277 609.127 334.415L562.288 359.848L374.95 461.565L0 664.634Z" fill="#002D0A"/>
<path d="M0 743.202L373.733 537.865L560.736 435.402L607.498 409.801C623.357 401.514 639.961 394.741 657.091 389.573C665.66 386.965 674.362 384.811 683.158 383.12C691.933 381.405 700.774 380.076 709.681 379.132C727.503 377.217 745.475 377.166 763.307 378.98C781.137 380.821 798.73 384.498 815.806 389.954C824.371 392.618 832.779 395.763 840.99 399.375C849.207 402.921 857.196 406.985 865.094 410.973L960.551 458.43L1151.43 553.42L1533.23 743.323L1914.79 933.669L2105.58 1028.84L2200.96 1076.45C2208.96 1080.44 2216.76 1084.52 2224.84 1088.05C2232.89 1091.61 2241.13 1094.73 2249.52 1097.38C2266.3 1102.82 2283.6 1106.5 2301.13 1108.37C2318.68 1110.21 2336.36 1110.21 2353.91 1108.37C2389.13 1104.95 2423.38 1094.81 2454.78 1078.49L2501.62 1053.06L2688.99 951.37L3064 748.422L2690.27 953.759L2503.26 1056.18L2456.5 1081.78C2440.68 1090.09 2424.1 1096.88 2406.99 1102.05C2398.42 1104.67 2389.72 1106.83 2380.92 1108.52C2372.15 1110.23 2363.31 1111.56 2354.39 1112.51C2336.57 1114.42 2318.6 1114.47 2300.77 1112.66C2282.94 1110.82 2265.35 1107.14 2248.27 1101.69C2239.71 1099.01 2231.3 1095.86 2223.09 1092.26C2214.85 1088.72 2206.88 1084.58 2198.98 1080.67L2103.53 1033.19L1912.64 938.25L1530.77 748.301L1149.21 557.955L958.421 462.798L863.04 415.204C855.036 411.201 847.244 407.122 839.164 403.606C831.118 400.045 822.877 396.94 814.482 394.307C797.701 388.872 780.404 385.185 762.865 383.302C745.322 381.476 727.636 381.476 710.092 383.302C692.533 385.045 675.176 388.429 658.247 393.409C641.317 398.442 624.9 405.067 609.218 413.195L562.38 438.628L375.011 540.254L0 743.202Z" fill="#002D0A"/>
<path d="M0 821.769L373.672 616.295L560.66 513.877L607.407 488.262C623.266 479.96 639.876 473.182 657.015 468.019C665.593 465.4 674.304 463.241 683.112 461.55C691.888 459.825 700.734 458.491 709.651 457.547C727.482 455.634 745.464 455.578 763.307 457.38C781.153 459.224 798.761 462.907 815.851 468.369C824.452 471.03 832.896 474.175 841.142 477.79C849.375 481.336 857.349 485.476 865.246 489.388L960.703 536.845L1151.57 631.743L1533.37 821.632L1914.92 1011.99L2105.69 1107.21L2201.08 1154.82C2209.09 1158.82 2216.86 1162.89 2224.94 1166.42C2232.98 1169.98 2241.21 1173.09 2249.59 1175.75C2283.21 1186.68 2318.74 1190.44 2353.89 1186.78C2389.1 1183.36 2423.33 1173.22 2454.72 1156.92L2501.56 1131.5L2688.94 1029.82L3064.02 827.005L2690.34 1032.48L2503.36 1134.93L2456.61 1160.54C2440.74 1168.84 2424.13 1175.62 2406.99 1180.79C2398.41 1183.4 2389.71 1185.56 2380.9 1187.25C2372.13 1188.99 2363.28 1190.32 2354.36 1191.26C2336.53 1193.18 2318.54 1193.23 2300.69 1191.42C2282.84 1189.58 2265.23 1185.9 2248.13 1180.45C2239.57 1177.77 2231.15 1174.62 2222.93 1171.01C2214.7 1167.47 2206.71 1163.33 2198.81 1159.42L2103.36 1111.96L1912.43 1017L1530.66 827.111L1149.11 636.736L958.314 541.548L862.948 493.939C854.929 489.936 847.153 485.872 839.073 482.341C831.035 478.776 822.805 475.661 814.421 473.011C797.653 467.588 780.372 463.906 762.85 462.022C745.317 460.195 727.641 460.195 710.108 462.022C692.584 463.762 675.262 467.14 658.369 472.113C641.442 477.143 625.03 483.768 609.355 491.899L562.517 517.317L375.072 618.943L0 821.769Z" fill="#002D0A"/>
<path d="M0 900.336L374.159 695.821L561.314 593.693L608.107 568.168C623.896 559.905 640.436 553.162 657.502 548.032C674.585 542.964 692.106 539.509 709.834 537.712C745.36 533.957 781.278 537.69 815.273 548.671C823.77 551.34 832.112 554.48 840.26 558.077C848.431 561.608 856.344 565.687 864.288 569.675L959.836 617.162L1150.66 712.167L1532.4 902.147L1914.01 1092.4L2104.8 1187.53L2200.21 1235.09C2208.17 1239.05 2216.04 1243.16 2224.17 1246.69C2232.28 1250.26 2240.58 1253.39 2249.03 1256.05C2265.92 1261.48 2283.32 1265.16 2300.97 1267.02C2318.62 1268.87 2336.41 1268.87 2354.06 1267.02C2389.46 1263.54 2423.85 1253.29 2455.39 1236.84L2502.2 1211.35L2689.37 1109.37L3063.95 905.617L2689.84 1110.09L2502.67 1212.23L2455.88 1237.77C2424.22 1254.32 2389.69 1264.66 2354.15 1268.21C2318.63 1271.98 2282.72 1268.26 2248.73 1257.3C2240.23 1254.63 2231.88 1251.5 2223.73 1247.91C2215.55 1244.36 2207.66 1240.3 2199.71 1236.31L2104.16 1188.81L1913.34 1093.76L1531.6 903.761L1150.05 713.492L959.197 618.365L863.785 570.862C855.827 566.905 847.96 562.795 839.834 559.264C831.723 555.691 823.422 552.567 814.969 549.904C798.081 544.459 780.677 540.772 763.033 538.9C745.383 537.05 727.589 537.05 709.94 538.9C674.544 542.387 640.146 552.633 608.609 569.081L561.801 594.591L374.631 696.567L0 900.336Z" fill="#002D0A"/>
<path d="M0 978.918L374.098 774.282L561.269 672.108L608.031 646.568C623.836 638.332 640.385 631.61 657.456 626.492C674.544 621.421 692.07 617.961 709.803 616.158C745.371 612.378 781.336 616.096 815.38 627.071C823.888 629.737 832.24 632.877 840.397 636.477C848.583 640.008 856.496 644.087 864.424 648.075L959.836 695.562L1150.72 790.537L1532.49 980.486L1914.07 1170.74L2104.86 1265.88L2200.26 1313.46C2208.23 1317.43 2216.09 1321.53 2224.21 1325.06C2232.32 1328.63 2240.61 1331.76 2249.06 1334.42C2265.94 1339.85 2283.33 1343.52 2300.95 1345.39C2318.59 1347.23 2336.36 1347.23 2354 1345.39C2389.38 1341.92 2423.76 1331.68 2455.28 1315.24L2502.09 1289.75L2689.26 1187.77L3063.91 984.139L2689.9 1188.81L2502.73 1290.96L2455.94 1316.5C2440.14 1324.75 2423.59 1331.48 2406.51 1336.6C2389.43 1341.67 2371.9 1345.12 2354.17 1346.91C2318.6 1350.71 2282.63 1347 2248.59 1336.02C2240.08 1333.35 2231.73 1330.21 2223.57 1326.61C2215.39 1323.08 2207.47 1319 2199.55 1315.01L2104.16 1267.5L1913.28 1172.52L1531.48 982.571L1149.9 792.318L959.105 697.191L863.709 649.536C855.735 645.579 847.883 641.484 839.758 637.953C831.655 634.374 823.359 631.249 814.908 628.593C781.059 617.64 745.289 613.912 709.91 617.649C692.265 619.418 674.825 622.843 657.821 627.878C640.828 632.95 624.355 639.627 608.624 647.816L561.877 673.31L374.707 775.286L0 978.918Z" fill="#002D0A"/>
<path d="M0 1057.49L373.976 852.727L561.147 750.462L607.924 724.907C639.623 708.344 674.201 698.01 709.788 694.466C727.545 692.574 745.451 692.538 763.215 694.36C780.974 696.217 798.494 699.894 815.501 705.334C824.021 708.009 832.388 711.149 840.564 714.74C848.751 718.286 856.679 722.35 864.607 726.338L960.049 773.825L1150.92 868.83L1532.65 1058.84L1914.27 1249.09L2105.08 1344.22L2200.47 1391.78C2208.46 1395.76 2216.3 1399.85 2224.41 1403.38C2232.5 1406.95 2240.78 1410.08 2249.21 1412.74C2266.07 1418.17 2283.44 1421.86 2301.04 1423.73C2318.65 1425.57 2336.41 1425.57 2354.01 1423.73C2389.36 1420.27 2423.72 1410.06 2455.22 1393.66L2502.03 1368.18L2689.31 1266.29L3064.02 1062.77L2690.02 1267.46L2502.85 1369.71L2456.08 1395.27C2424.38 1411.83 2389.8 1422.17 2354.21 1425.71C2336.46 1427.61 2318.55 1427.65 2300.78 1425.83C2283.02 1423.98 2265.5 1420.29 2248.5 1414.84C2239.98 1412.18 2231.61 1409.04 2223.44 1405.45C2215.25 1401.91 2207.32 1397.84 2199.39 1393.85L2103.95 1346.35L1913.08 1251.35L1531.36 1061.38L1149.75 871.128L958.938 776.017L863.542 728.453C855.553 724.481 847.731 720.386 839.605 716.855C831.516 713.28 823.236 710.155 814.801 707.495C797.948 702.062 780.58 698.379 762.972 696.506C745.363 694.664 727.61 694.664 710.001 696.506C674.654 699.972 640.298 710.182 608.792 726.581L561.984 752.075L374.707 853.96L0 1057.49Z" fill="#002D0A"/>
<path d="M0 1136.05L373.976 931.188L561.056 828.907L607.833 803.337C639.56 786.749 674.167 776.385 709.788 772.805C745.423 769.002 781.459 772.704 815.577 783.672C824.1 786.339 832.467 789.48 840.64 793.079C848.827 796.625 856.77 800.689 864.698 804.676L960.14 852.164L1151.01 947.154L1532.75 1137.15L1914.36 1327.4L2105.17 1422.54L2200.56 1470.11C2208.55 1474.1 2216.38 1478.17 2224.49 1481.71C2232.56 1485.28 2240.83 1488.4 2249.26 1491.05C2283.01 1502 2318.69 1505.74 2353.98 1502.04C2389.31 1498.59 2423.64 1488.39 2455.12 1472L2501.94 1446.53L2689.23 1344.68L3064 1141.29L2690.02 1346.15L2502.94 1448.43L2456.18 1474C2424.45 1490.59 2389.85 1500.95 2354.23 1504.54C2318.59 1508.34 2282.56 1504.64 2248.44 1493.67C2239.91 1491 2231.53 1487.86 2223.34 1484.26C2215.14 1480.72 2207.21 1476.65 2199.29 1472.67L2103.84 1425.18L1912.98 1330.19L1531.25 1140.19L1149.64 949.939L958.832 854.812L863.435 807.234C855.462 803.261 847.625 799.167 839.514 795.636C831.438 792.059 823.167 788.939 814.741 786.29C780.985 775.341 745.308 771.597 710.016 775.301C692.404 777.059 674.996 780.463 658.019 785.468C641.05 790.528 624.598 797.184 608.883 805.346L562.06 830.795L374.768 932.649L0 1136.05Z" fill="#002D0A"/>
</g>
<defs>
<clipPath id="clip0_1981:1746">
<rect width="3064" height="3061" fill="white" transform="translate(0 -210)"/>
</clipPath>
</defs>
</svg>
