<svg width="140" height="26" viewBox="0 0 140 26" fill="none" xmlns="http://www.w3.org/2000/svg">
<path d="M39.0259 7.95233C41.8876 6.20215 45.7274 7.03942 47.7331 9.77816H50.3346C48.0115 5.23706 42.27 3.41645 37.9047 6.0613C36.1591 7.07333 34.4863 9.08696 33.1986 10.6859C32.2542 11.8492 31.2943 12.989 30.3213 14.1289C29.1376 15.4982 28.0346 16.8389 26.9108 18.2213C24.6605 21.0905 22.0251 23.451 18.1931 22.4233C13.076 20.994 11.3746 14.0923 14.4132 9.98683C16.7909 6.49167 21.8925 5.99609 24.7905 9.12608C22.842 11.3666 20.329 14.2515 18.2478 16.6381H21.1666C23.3077 14.181 25.6542 11.484 27.6574 9.17564C24.7957 4.79104 19.1765 3.39558 14.8346 6.48645C9.54576 10.1798 9.31943 18.816 14.3559 22.8329C15.602 23.8708 17.1106 24.5421 18.7143 24.7723C20.3179 25.0026 21.9538 24.7826 23.4404 24.137H23.4247C25.8676 23.0937 27.6522 20.7958 29.2937 18.7873C31.0706 16.6094 32.9358 14.4888 34.7179 12.3109C35.9848 10.7563 37.4 8.93307 39.0259 7.95233Z" fill="#BEEB6E"/>
<path d="M3.15385 8.34357L2.84167 5.1901H0.737061V24.4656H3.19027V13.7115C3.13044 8.8522 5.57585 6.23865 9.3116 7.19069V5.03621C6.84018 4.19633 4.01755 5.67786 3.15385 8.34357Z" fill="#BEEB6E"/>
<path d="M67.0363 16.4294C67.0363 20.2167 64.9551 22.6398 61.5991 22.6398C58.5372 22.6398 56.7629 20.6705 56.7629 17.3762V5.19009H54.3071V17.8379C54.3071 22.1181 56.8774 24.8438 60.8421 24.8438C63.6751 24.8438 65.8656 23.5945 67.0857 21.3617L67.3875 24.4656H69.5025V5.19009H67.0467L67.0363 16.4294Z" fill="#BEEB6E"/>
<path d="M77.0807 8.34357L76.779 5.21358H74.6639V24.4891H77.1197V13.7115C77.0573 8.85219 79.5053 6.23865 83.2385 7.19069V5.03621C80.767 4.19633 77.947 5.67786 77.0807 8.34357Z" fill="#BEEB6E"/>
<path d="M100.765 8.86523C99.3287 6.2569 96.722 4.85101 93.7771 4.85101C88.7536 4.85101 85.1271 8.94087 85.1271 14.8487C85.1271 20.7566 88.7536 24.8465 93.7771 24.8465C96.8 24.8465 99.3677 23.3701 100.801 20.6731L101.103 24.4604H103.184V5.1901H101.069L100.765 8.86523ZM94.2609 22.6503C90.3327 22.6503 87.6505 19.5072 87.6505 14.8487C87.5413 4.38934 100.934 4.39195 100.832 14.8487C100.84 19.4681 98.158 22.6476 94.2687 22.6476L94.2609 22.6503Z" fill="#BEEB6E"/>
<path d="M139.16 18.2161H136.319C134.067 21.0983 131.434 23.4458 127.602 22.4286C122.482 20.9888 120.783 14.0819 123.811 9.98161C126.189 6.48645 131.291 5.99087 134.186 9.12086L127.646 16.6328H130.575C133 13.8498 135.154 11.3771 137.079 9.17042C134.217 4.78582 128.598 3.39036 124.254 6.48123C118.967 10.1746 118.741 18.8108 123.778 22.8276C125.024 23.8655 126.532 24.5369 128.136 24.7671C129.74 24.9973 131.376 24.7774 132.862 24.1318H132.846C135.518 22.9789 137.339 20.3914 139.16 18.2161Z" fill="#BEEB6E"/>
<path d="M114.261 5.19012V0.643799H111.6V5.19012H111.4H107.258V7.3472H111.4H111.6V24.4657H114.261V7.3472H114.462H118.603V5.19012H114.462H114.261Z" fill="#BEEB6E"/>
<path d="M44.1144 22.4285C40.8599 23.3388 38.157 21.6252 36.1304 19.0977L32.6028 14.8566V18.3935L34.684 20.7723C35.5841 21.8156 36.8432 23.0311 37.9176 23.6414C42.2934 26.2967 48.0635 24.4526 50.3632 19.8959H47.7617C46.8532 21.1155 45.5726 22.0047 44.1144 22.4285Z" fill="#BEEB6E"/>
</svg>
