<svg width="351" height="115" viewBox="0 0 351 115" fill="none" xmlns="http://www.w3.org/2000/svg">
<path d="M114.641 43.8278C120.345 40.3475 127.998 42.0125 131.996 47.4585H137.181C132.551 38.4284 121.107 34.8081 112.406 40.0674C108.927 42.0799 105.592 46.084 103.026 49.2635C101.144 51.5768 99.2302 53.8434 97.2909 56.11C94.9316 58.833 92.7331 61.499 90.493 64.2479C86.0078 69.9533 80.7551 74.6473 73.1173 72.6037C62.9179 69.7614 59.5267 56.0373 65.5831 47.8734C70.3224 40.9232 80.4907 39.9378 86.2671 46.1618C82.3833 50.6172 77.3744 56.3537 73.2262 61.0996H79.044C83.3115 56.2137 87.9886 50.8506 91.9812 46.2604C86.2774 37.5415 75.0773 34.7666 66.4231 40.9129C55.8815 48.2573 55.4304 65.4305 65.469 73.4181C67.9527 75.482 70.9597 76.817 74.156 77.2748C77.3524 77.7326 80.613 77.2953 83.5759 76.0114H83.5448C88.4137 73.9367 91.9708 69.3672 95.2427 65.3734C98.7842 61.0425 102.502 56.8257 106.054 52.4948C108.579 49.4035 111.4 45.778 114.641 43.8278Z" fill="#00320A"/>
<path d="M43.1413 44.6058L42.5191 38.3351H38.3242V76.6649H43.2139V55.2749C43.0946 45.612 47.9688 40.4201 55.4148 42.3081V38.029C50.4888 36.3589 44.8628 39.305 43.1413 44.6058Z" fill="#00320A"/>
<path d="M170.47 60.6846C170.47 68.2158 166.322 73.0342 159.633 73.0342C153.53 73.0342 149.994 69.1182 149.994 62.5674V38.3351H145.099V63.4855C145.099 71.9969 150.222 77.417 158.124 77.417C163.771 77.417 168.137 74.9326 170.569 70.4927L171.17 76.6649H175.386V38.3351H170.491L170.47 60.6846Z" fill="#00320A"/>
<path d="M190.49 44.6058L189.889 38.3817H185.673V76.7116H190.568V55.2749C190.444 45.612 195.323 40.4201 202.764 42.3081V38.029C197.838 36.3589 192.217 39.305 190.49 44.6058Z" fill="#00320A"/>
<path d="M237.697 45.6432C234.835 40.4564 229.639 37.6608 223.77 37.6608C213.757 37.6608 206.529 45.7936 206.529 57.5415C206.529 69.2894 213.757 77.4222 223.77 77.4222C229.795 77.4222 234.913 74.4865 237.77 69.1234L238.371 76.6546H242.519V38.3351H238.304L237.697 45.6432ZM224.734 73.055C216.904 73.055 211.558 66.805 211.558 57.5415C211.34 36.7427 238.034 36.7479 237.832 57.5415C237.847 66.7272 232.501 73.0498 224.75 73.0498L224.734 73.055Z" fill="#00320A"/>
<path d="M314.226 64.2376H308.564C304.073 69.9689 298.826 74.6369 291.188 72.6141C280.984 69.751 277.598 56.0166 283.633 47.8631C288.373 40.9129 298.541 39.9274 304.312 46.1515L291.276 61.0892H297.115C301.948 55.555 306.241 50.638 310.078 46.25C304.374 37.5311 293.174 34.7562 284.515 40.9025C273.978 48.2469 273.527 65.4201 283.566 73.4077C286.049 75.4716 289.056 76.8066 292.253 77.2644C295.449 77.7222 298.71 77.2849 301.673 76.001H301.642C306.967 73.7085 310.597 68.5633 314.226 64.2376Z" fill="#00320A"/>
<path d="M264.598 38.3351V29.2946H259.294V38.3351H258.894H250.639V42.6245H258.894H259.294V76.6649H264.598V42.6245H264.997H273.252V38.3351H264.997H264.598Z" fill="#00320A"/>
<path d="M124.783 72.6141C118.296 74.4243 112.909 71.0166 108.87 65.9907L101.838 57.5571V64.5902L105.987 69.3205C107.781 71.3952 110.29 73.8122 112.432 75.0259C121.153 80.306 132.654 76.639 137.238 67.5778H132.053C130.242 70.003 127.69 71.7712 124.783 72.6141Z" fill="#00320A"/>
</svg>
