<svg width="18" height="18" viewBox="0 0 18 18" fill="none" xmlns="http://www.w3.org/2000/svg">
<path d="M9.00043 18.0001C4.50378 18.0001 0.845825 14.3384 0.845825 9.84299C0.845825 5.34697 4.50378 1.68711 9.00043 1.68711C9.29911 1.68711 9.60096 1.7043 9.90091 1.73805V0.419816C9.90091 0.250419 10.0054 0.0963061 10.1595 0.0307126C10.3199 -0.0316967 10.4976 0.00332894 10.6199 0.124963L13.5092 3.02063C13.6735 3.18493 13.6735 3.44731 13.5092 3.61415L10.6212 6.51619C10.4983 6.63591 10.3199 6.67285 10.1595 6.60725C10.0054 6.54102 9.90091 6.38819 9.90091 6.21943V4.75726C9.60224 4.7025 9.30165 4.67766 9.00043 4.67766C6.15189 4.67766 3.83383 6.99508 3.83383 9.84299C3.83383 12.6903 6.15253 15.0096 9.00043 15.0096C11.8483 15.0096 14.1658 12.6896 14.1658 9.84299C14.1658 9.61182 14.3536 9.42268 14.5873 9.42268H16.7328C16.9653 9.42268 17.1544 9.61182 17.1544 9.84299C17.1544 14.3384 13.4939 18.0001 9.00043 18.0001Z" fill="#335C3C"/>
</svg>
