<svg width="16" height="17" viewBox="0 0 16 17" fill="none" xmlns="http://www.w3.org/2000/svg">
<path d="M13.7396 9.53314V2.51102C13.7396 1.42113 12.853 0.534546 11.7631 0.534546H2.25C2.85844 0.875974 3.26114 1.52244 3.26114 2.26004V14.0875C3.26114 14.6064 3.68341 15.0287 4.20231 15.0287H8.92451C7.58362 11.929 10.4588 8.60282 13.7396 9.53314ZM7.56451 7.35871C7.6991 7.13628 7.98835 7.06506 8.21078 7.19965C8.57188 7.41832 8.71902 7.43996 9.18961 7.43714C9.67902 7.434 9.95227 7.11055 9.99902 6.81094C10.0251 6.64498 10.0018 6.34475 9.55541 6.19855C8.83196 5.962 8.41345 5.77596 8.11102 5.55635C7.27036 4.94657 7.57778 3.47664 8.72184 3.19776V3.01769C8.72184 2.75792 8.93267 2.5471 9.19243 2.5471C9.4522 2.5471 9.66302 2.75792 9.66302 3.01769V3.16796C10.0175 3.23949 10.2908 3.39259 10.4417 3.51871C10.5505 3.60498 10.6202 3.738 10.6202 3.88733C10.6202 4.29446 10.1407 4.50512 9.83965 4.24059L9.83902 4.24122L9.8431 4.24498C9.50917 3.98409 8.67902 3.96197 8.58098 4.50192C8.5631 4.60137 8.57565 4.73063 8.6638 4.79463C8.93361 4.99039 9.41392 5.162 9.84812 5.30412C11.5024 5.84548 11.1666 7.93186 9.66302 8.31871V8.53455C9.66302 8.79432 9.4522 9.00514 9.19243 9.00514C8.93267 9.00514 8.72184 8.79432 8.72184 8.53455V8.36106C8.38145 8.32718 8.10223 8.23432 7.72325 8.00498C7.50082 7.8704 7.42992 7.58083 7.56451 7.35871ZM4.70427 3.54631H5.7082C5.96796 3.54631 6.17878 3.75714 6.17878 4.0169C6.17878 4.27667 5.96796 4.48749 5.7082 4.48749H4.70427C4.44451 4.48749 4.23369 4.27667 4.23369 4.0169C4.23369 3.75714 4.44451 3.54631 4.70427 3.54631ZM4.70427 5.30318H5.7082C5.96796 5.30318 6.17878 5.514 6.17878 5.77377C6.17878 6.03353 5.96796 6.24436 5.7082 6.24436H4.70427C4.44451 6.24436 4.23369 6.03353 4.23369 5.77377C4.23369 5.514 4.44451 5.30318 4.70427 5.30318ZM4.70427 7.31102H5.7082C5.96796 7.31102 6.17878 7.52185 6.17878 7.78161C6.17878 8.04138 5.96796 8.2522 5.7082 8.2522H4.70427C4.44451 8.2522 4.23369 8.04138 4.23369 7.78161C4.23369 7.52185 4.44451 7.31102 4.70427 7.31102ZM7.46506 12.2679H4.70427C4.44451 12.2679 4.23369 12.0571 4.23369 11.7973C4.23369 11.5375 4.44451 11.3267 4.70427 11.3267H7.46506C7.72482 11.3267 7.93565 11.5375 7.93565 11.7973C7.93565 12.0571 7.72482 12.2679 7.46506 12.2679ZM7.46506 10.26H4.70427C4.44451 10.26 4.23369 10.0492 4.23369 9.78946C4.23369 9.52969 4.44451 9.31887 4.70427 9.31887H7.46506C7.72482 9.31887 7.93565 9.52969 7.93565 9.78946C7.93565 10.0492 7.72482 10.26 7.46506 10.26Z" fill="white"/>
<path d="M15.4295 12.0599L13.1004 14.3889C12.9181 14.5713 12.6196 14.5739 12.4346 14.3889L11.6817 13.636C11.345 13.2994 11.6671 12.6917 12.183 12.8636C12.3064 12.9091 12.3235 12.9464 12.7675 13.3907L14.8804 11.2777C14.3151 10.6895 13.5204 10.3228 12.642 10.3228C10.9294 10.3228 9.53613 11.716 9.53613 13.4286C9.53613 15.1413 10.9294 16.5345 12.642 16.5345C14.9432 16.5345 16.4402 14.1078 15.4295 12.0599Z" fill="white"/>
<path d="M1.28481 1.22974C0.713041 1.22974 0.249512 1.69327 0.249512 2.26503V4.29923C0.249512 4.81904 0.670876 5.2404 1.19069 5.2404H2.3201V2.26503C2.3201 1.69327 1.85657 1.22974 1.28481 1.22974Z" fill="white"/>
</svg>
