<svg width="16" height="17" viewBox="0 0 16 17" fill="none" xmlns="http://www.w3.org/2000/svg">
<path d="M4.16636 12.8887C3.09907 12.8887 2.14971 12.2054 1.80497 11.188L1.78165 11.1113C1.70035 10.8419 1.66629 10.6154 1.66629 10.3887V5.84314L0.0489455 11.242C-0.159067 12.036 0.314943 12.8593 1.11025 13.0787L11.4192 15.8395C11.5479 15.8728 11.6766 15.8888 11.8033 15.8888C12.4672 15.8888 13.0739 15.4481 13.244 14.7987L13.8446 12.8887H4.16636Z" fill="white"/>
<path d="M5.99942 5.88862C6.73479 5.88862 7.3327 5.29058 7.3327 4.55521C7.3327 3.81984 6.73479 3.2218 5.99942 3.2218C5.26405 3.2218 4.66602 3.81984 4.66602 4.55521C4.66602 5.29058 5.26405 5.88862 5.99942 5.88862Z" fill="white"/>
<path d="M14.3329 1.2218H4.33268C3.41408 1.2218 2.66602 1.96987 2.66602 2.88859V10.222C2.66602 11.1407 3.41408 11.8888 4.33268 11.8888H14.3329C15.2517 11.8888 15.9997 11.1407 15.9997 10.222V2.88859C15.9997 1.96987 15.2517 1.2218 14.3329 1.2218ZM4.33268 2.55521H14.3329C14.517 2.55521 14.6663 2.7045 14.6663 2.88859V7.62137L12.5603 5.16392C12.3369 4.90195 12.0135 4.76193 11.6662 4.75399C11.3209 4.75595 10.9969 4.90927 10.7756 5.17466L8.29945 8.14666L7.49279 7.34195C7.03685 6.886 6.29477 6.886 5.83943 7.34195L3.99942 9.18135V2.88859C3.99942 2.7045 4.14872 2.55521 4.33268 2.55521Z" fill="white"/>
</svg>
