<svg width="32" height="32" viewBox="0 0 32 32" fill="none" xmlns="http://www.w3.org/2000/svg">
<path d="M25.6064 22.5184C25.3728 22.2848 25.3408 21.8816 25.52 21.6032C26.928 19.4368 27.7536 16.8576 27.7536 14.0864C27.7536 6.43201 21.5264 0.208008 13.8784 0.208008C6.224 0.208008 0 6.43201 0 14.0864C0 21.7376 6.224 27.9616 13.8784 27.9616C16.8576 27.9616 19.616 27.0048 21.8816 25.3984C22.1472 25.2064 22.5472 25.232 22.7808 25.4624L27.7408 30.4224C27.7728 30.4544 27.808 30.4864 27.8432 30.512C27.9008 30.56 28.1408 30.784 28.3712 31.0176L28.96 31.6032C29.1936 31.8336 29.5712 31.8336 29.8016 31.6032L31.824 29.5808C32.0576 29.3472 32.0576 28.9696 31.8272 28.736L25.6064 22.5184ZM22.272 20.5504C21.8144 21.1456 21.2992 21.6896 20.7296 22.1728C18.88 23.744 16.4896 24.6976 13.8784 24.6976C8.0256 24.6976 3.264 19.936 3.264 14.0864C3.264 8.23681 8.0256 3.47201 13.8784 3.47201C19.728 3.47201 24.4896 8.23361 24.4896 14.0864C24.4896 16.5184 23.6544 18.7584 22.272 20.5504Z" fill="#718E7A"/>
</svg>
