<svg width="16" height="17" viewBox="0 0 16 17" fill="none" xmlns="http://www.w3.org/2000/svg">
<path d="M15.2313 10.331L13.9 9.56223C14.0344 8.83723 14.0344 8.09348 13.9 7.36848L15.2313 6.59973C15.3844 6.51223 15.4531 6.33098 15.4031 6.16223C15.0563 5.04973 14.4656 4.04348 13.6938 3.20598C13.575 3.07785 13.3813 3.0466 13.2313 3.1341L11.9 3.90285C11.3406 3.4216 10.6969 3.04973 10 2.80598V1.2716C10 1.0966 9.87814 0.943478 9.70627 0.905978C8.55939 0.649728 7.38439 0.662228 6.29377 0.905978C6.12189 0.943478 6.00002 1.0966 6.00002 1.2716V2.8091C5.30627 3.05598 4.66252 3.42785 4.10002 3.90598L2.77189 3.13723C2.61877 3.04973 2.42814 3.07785 2.30939 3.2091C1.53752 4.04348 0.946895 5.04973 0.60002 6.16535C0.546895 6.3341 0.61877 6.51535 0.771895 6.60285L2.10314 7.3716C1.96877 8.0966 1.96877 8.84035 2.10314 9.56535L0.771895 10.3341C0.61877 10.4216 0.55002 10.6029 0.60002 10.7716C0.946895 11.8841 1.53752 12.8904 2.30939 13.7279C2.42814 13.856 2.62189 13.8872 2.77189 13.7997L4.10314 13.031C4.66252 13.5122 5.30627 13.8841 6.00314 14.1279V15.6654C6.00314 15.8404 6.12502 15.9935 6.29689 16.031C7.44377 16.2872 8.61877 16.2747 9.70939 16.031C9.88127 15.9935 10.0031 15.8404 10.0031 15.6654V14.1279C10.6969 13.881 11.3406 13.5091 11.9031 13.031L13.2344 13.7997C13.3875 13.8872 13.5781 13.8591 13.6969 13.7279C14.4688 12.8935 15.0594 11.8872 15.4063 10.7716C15.4531 10.5997 15.3844 10.4185 15.2313 10.331ZM8.00002 10.9654C6.62189 10.9654 5.50002 9.84348 5.50002 8.46535C5.50002 7.08723 6.62189 5.96535 8.00002 5.96535C9.37814 5.96535 10.5 7.08723 10.5 8.46535C10.5 9.84348 9.37814 10.9654 8.00002 10.9654Z" fill="white"/>
</svg>
