<svg width="22" height="18" viewBox="0 0 22 18" fill="none" xmlns="http://www.w3.org/2000/svg">
<path d="M0.692852 3.40258L3.97345 0.188216C4.22971 -0.0627789 4.64541 -0.0626986 4.90151 0.188216L8.18198 3.40258C8.59501 3.80718 8.30088 4.50001 7.71793 4.50001H5.75V17.3571C5.75 17.7122 5.4562 18 5.09375 18H3.78125C3.41879 18 3.125 17.7122 3.125 17.3571V4.50001H1.1569C0.572799 4.50001 0.280686 3.80637 0.692852 3.40258ZM10.3437 2.57145H20.8437C21.2062 2.57145 21.5 2.28365 21.5 1.92859V0.642876C21.5 0.287819 21.2062 2.0168e-05 20.8437 2.0168e-05H10.3437C9.98129 2.0168e-05 9.6875 0.287819 9.6875 0.642876V1.92859C9.6875 2.28365 9.98129 2.57145 10.3437 2.57145ZM9.6875 7.07144V5.78573C9.6875 5.43067 9.98129 5.14287 10.3437 5.14287H18.2187C18.5812 5.14287 18.875 5.43067 18.875 5.78573V7.07144C18.875 7.4265 18.5812 7.7143 18.2187 7.7143H10.3437C9.98129 7.7143 9.6875 7.4265 9.6875 7.07144ZM9.6875 17.3571V16.0714C9.6875 15.7164 9.98129 15.4286 10.3437 15.4286H12.9687C13.3312 15.4286 13.625 15.7164 13.625 16.0714V17.3571C13.625 17.7122 13.3312 18 12.9687 18H10.3437C9.98129 18 9.6875 17.7122 9.6875 17.3571ZM9.6875 12.2143V10.9286C9.6875 10.5735 9.98129 10.2857 10.3437 10.2857H15.5937C15.9562 10.2857 16.25 10.5735 16.25 10.9286V12.2143C16.25 12.5693 15.9562 12.8571 15.5937 12.8571H10.3437C9.98129 12.8571 9.6875 12.5693 9.6875 12.2143Z" fill="#C5C7CD"/>
</svg>
