<svg width="16" height="16" viewBox="0 0 16 16" fill="none" xmlns="http://www.w3.org/2000/svg">
<path d="M15.8916 0.113176C15.8194 0.0407977 15.7213 0 15.6189 0C15.5166 0 15.4185 0.0407977 15.3463 0.113176L13.6751 1.78422L12.9208 1.02992C12.5152 0.623299 11.9492 0.419159 11.3774 0.472951L8.68901 0.71668C8.23933 0.758838 7.81821 0.955573 7.49757 1.27364L0.565729 8.19777C-0.188576 8.95329 -0.188576 10.1771 0.565729 10.9326L5.06829 15.4353C5.82592 16.1882 7.04939 16.1882 7.80702 15.4353L14.7351 8.50723C15.0553 8.1881 15.2526 7.76622 15.292 7.31579L15.5358 4.62737C15.5878 4.0559 15.3838 3.49062 14.9788 3.08401L14.2245 2.3297L15.8956 0.658657C15.9682 0.586278 16.0089 0.487608 16.0081 0.38501C16.0075 0.282411 15.9655 0.184496 15.8916 0.113176ZM7.29252 12.3251C7.21999 12.3983 7.12087 12.4388 7.01797 12.4374C6.91537 12.437 6.81685 12.3968 6.74326 12.3251L3.67965 9.26154C3.529 9.11089 3.529 8.86671 3.67965 8.71606C3.8303 8.56556 4.07448 8.56556 4.22513 8.71606L7.28874 11.7798C7.36248 11.851 7.40449 11.949 7.40524 12.0516C7.406 12.1542 7.36535 12.2529 7.29252 12.3251ZM8.65803 10.9559C8.58551 11.0288 8.48638 11.0693 8.38348 11.068C8.28073 11.0675 8.18236 11.0273 8.10878 10.9559L5.04517 7.89224C4.89452 7.7416 4.89452 7.49741 5.04517 7.34676C5.19582 7.19611 5.44 7.19611 5.5905 7.34676L8.65426 10.4104C8.72799 10.4817 8.77 10.5798 8.77076 10.6824C8.77151 10.785 8.73087 10.8835 8.65803 10.9559ZM12.0931 6.194C11.4991 6.7892 10.5477 6.82863 9.9066 6.28466C9.26547 5.74069 9.14942 4.79555 9.64005 4.11256C10.1307 3.42973 11.0634 3.23798 11.7836 3.67195L11.2034 4.25218C11.1222 4.22589 11.0373 4.21274 10.9519 4.2135C10.59 4.21395 10.2695 4.4471 10.1577 4.79116C10.0459 5.13538 10.1683 5.51238 10.4607 5.72528C10.7532 5.93834 11.1496 5.93894 11.4429 5.72694C11.736 5.51479 11.8594 5.13825 11.7488 4.79373L12.3291 4.2135C12.7133 4.84979 12.616 5.66575 12.0931 6.194Z" fill="white"/>
</svg>
