<svg width="16" height="16" viewBox="0 0 16 16" fill="none" xmlns="http://www.w3.org/2000/svg">
<g clip-path="url(#clip0_1327:3344)">
<path d="M14.8333 0H1.16667C0.523333 0 0 0.523333 0 1.16667V2.83333C0 3.47667 0.523333 4 1.16667 4H14.8333C15.4767 4 16 3.47667 16 2.83333V1.16667C16 0.523333 15.4767 0 14.8333 0Z" fill="white"/>
<path d="M1.16667 16H2.83333C3.47667 16 4 15.4767 4 14.8333V6.5C4 5.85667 3.47667 5.33333 2.83333 5.33333H1.16667C0.523333 5.33333 0 5.85667 0 6.5V14.8333C0 15.4767 0.523333 16 1.16667 16Z" fill="white"/>
<path d="M14.8334 5.33333H6.50004C5.85671 5.33333 5.33337 5.85667 5.33337 6.5V14.8333C5.33337 15.4767 5.85671 16 6.50004 16H14.8334C15.4767 16 16 15.4767 16 14.8333V6.5C16 5.85667 15.4767 5.33333 14.8334 5.33333Z" fill="white"/>
</g>
<defs>
<clipPath id="clip0_1327:3344">
<rect width="16" height="16" fill="white"/>
</clipPath>
</defs>
</svg>
