<svg width="18" height="18" viewBox="0 0 18 18" fill="none" xmlns="http://www.w3.org/2000/svg">
<g clip-path="url(#clip0_1593:2947)">
<path d="M14.9062 2.25H11.8125V1.6875C11.8125 0.755508 11.057 0 10.125 0H7.875C6.94301 0 6.1875 0.755508 6.1875 1.6875V2.25H3.09375C2.31711 2.25 1.6875 2.87961 1.6875 3.65625V4.78125C1.6875 5.09193 1.93932 5.34375 2.25 5.34375H15.75C16.0607 5.34375 16.3125 5.09193 16.3125 4.78125V3.65625C16.3125 2.87961 15.6829 2.25 14.9062 2.25ZM7.3125 1.6875C7.3125 1.37742 7.56492 1.125 7.875 1.125H10.125C10.4351 1.125 10.6875 1.37742 10.6875 1.6875V2.25H7.3125V1.6875Z" fill="#335C3C"/>
<path d="M2.755 6.46875C2.65463 6.46875 2.57465 6.55263 2.57943 6.6529L3.04349 16.3927C3.08638 17.2941 3.82677 18 4.72888 18H13.2711C14.1733 18 14.9136 17.2941 14.9565 16.3927L15.4206 6.6529C15.4254 6.55263 15.3454 6.46875 15.245 6.46875H2.755ZM11.25 7.875C11.25 7.56422 11.5017 7.3125 11.8125 7.3125C12.1233 7.3125 12.375 7.56422 12.375 7.875V15.1875C12.375 15.4983 12.1233 15.75 11.8125 15.75C11.5017 15.75 11.25 15.4983 11.25 15.1875V7.875ZM8.43751 7.875C8.43751 7.56422 8.68923 7.3125 9.00001 7.3125C9.31079 7.3125 9.56251 7.56422 9.56251 7.875V15.1875C9.56251 15.4983 9.31079 15.75 9.00001 15.75C8.68923 15.75 8.43751 15.4983 8.43751 15.1875V7.875ZM5.62501 7.875C5.62501 7.56422 5.87673 7.3125 6.18751 7.3125C6.49829 7.3125 6.75001 7.56422 6.75001 7.875V15.1875C6.75001 15.4983 6.49829 15.75 6.18751 15.75C5.87673 15.75 5.62501 15.4983 5.62501 15.1875V7.875Z" fill="#335C3C"/>
</g>
<defs>
<clipPath id="clip0_1593:2947">
<rect width="18" height="18" fill="white"/>
</clipPath>
</defs>
</svg>
