<svg width="15" height="12" viewBox="0 0 15 12" fill="none" xmlns="http://www.w3.org/2000/svg">
<g opacity="0.7">
<path d="M14.9227 5.80663C14.9001 5.75018 14.3563 4.40861 13.1846 3.05676C11.6074 1.23687 9.64165 0.274902 7.49999 0.274902C5.35832 0.274902 3.39264 1.23687 1.81536 3.05679C0.643771 4.40864 0.0998733 5.75021 0.0772853 5.80666L0 5.99993L0.0773146 6.19323C0.0999025 6.24969 0.643771 7.59126 1.81538 8.9431C3.39264 10.763 5.35835 11.725 7.50002 11.725C9.64168 11.725 11.6074 10.763 13.1846 8.9431C14.3562 7.59126 14.9001 6.24969 14.9227 6.19323L15 5.99993L14.9227 5.80663ZM7.49999 9.64315C5.49112 9.64315 3.85677 8.00879 3.85677 5.99993C3.85677 3.99107 5.49112 2.35671 7.49999 2.35671C9.50885 2.35671 11.1432 3.99107 11.1432 5.99993C11.1432 8.00879 9.50888 9.64315 7.49999 9.64315Z" fill="#335C3C"/>
<path d="M7.49988 3.39771C6.06497 3.39771 4.89758 4.5651 4.89758 6C4.89758 7.43491 6.06497 8.6023 7.49988 8.6023C8.93478 8.6023 10.1022 7.43491 10.1022 6C10.1022 4.5651 8.93478 3.39771 7.49988 3.39771ZM7.49988 5.47954C7.21288 5.47954 6.97942 5.71301 6.97942 6H5.9385C5.9385 5.13906 6.63893 4.43862 7.49988 4.43862V5.47954Z" fill="#335C3C"/>
</g>
</svg>
